<mxfile host="app.diagrams.net" modified="2023-04-23T17:15:46.941Z" agent="Mozilla/5.0 (Windows NT 10.0; Win64; x64; rv:109.0) Gecko/20100101 Firefox/111.0" etag="U-Em1OBDUTtCw5PYeqIS" version="21.2.1" type="device" pages="4">
  <diagram id="QsGh2HFcbKFERXqrZIfL" name="High Level">
    <mxGraphModel dx="1434" dy="774" grid="1" gridSize="10" guides="1" tooltips="1" connect="1" arrows="1" fold="1" page="1" pageScale="1" pageWidth="827" pageHeight="1169" math="0" shadow="0">
      <root>
        <mxCell id="0" />
        <mxCell id="1" parent="0" />
        <mxCell id="g5VERlOW1ZfgeuzxMmwW-1" value="" style="rounded=0;whiteSpace=wrap;html=1;" parent="1" vertex="1">
          <mxGeometry x="292" y="30" width="310" height="117" as="geometry" />
        </mxCell>
        <mxCell id="Ln5rSQXUUOAW7J74toT3-9" style="edgeStyle=orthogonalEdgeStyle;rounded=0;orthogonalLoop=1;jettySize=auto;html=1;exitX=0.5;exitY=1;exitDx=0;exitDy=0;entryX=0.5;entryY=0;entryDx=0;entryDy=0;strokeWidth=3;fontSize=15;fillColor=#dae8fc;strokeColor=#6c8ebf;" parent="1" source="g5VERlOW1ZfgeuzxMmwW-2" target="Ln5rSQXUUOAW7J74toT3-4" edge="1">
          <mxGeometry relative="1" as="geometry">
            <Array as="points">
              <mxPoint x="380" y="200" />
              <mxPoint x="375" y="200" />
            </Array>
          </mxGeometry>
        </mxCell>
        <mxCell id="Ln5rSQXUUOAW7J74toT3-10" style="edgeStyle=orthogonalEdgeStyle;rounded=0;orthogonalLoop=1;jettySize=auto;html=1;exitX=0.5;exitY=1;exitDx=0;exitDy=0;strokeWidth=3;fontSize=15;fillColor=#dae8fc;strokeColor=#6c8ebf;" parent="1" source="g5VERlOW1ZfgeuzxMmwW-2" target="Ln5rSQXUUOAW7J74toT3-5" edge="1">
          <mxGeometry relative="1" as="geometry">
            <Array as="points">
              <mxPoint x="380" y="200" />
              <mxPoint x="545" y="200" />
            </Array>
          </mxGeometry>
        </mxCell>
        <mxCell id="g5VERlOW1ZfgeuzxMmwW-2" value="&lt;div style=&quot;font-size: 15px;&quot;&gt;&lt;font style=&quot;font-size: 15px;&quot;&gt;Request receiving&lt;br&gt;&lt;/font&gt;&lt;/div&gt;" style="rounded=0;whiteSpace=wrap;html=1;" parent="1" vertex="1">
          <mxGeometry x="315" y="78" width="130" height="60" as="geometry" />
        </mxCell>
        <mxCell id="g5VERlOW1ZfgeuzxMmwW-41" style="edgeStyle=orthogonalEdgeStyle;rounded=0;orthogonalLoop=1;jettySize=auto;html=1;exitX=0.5;exitY=0;exitDx=0;exitDy=0;entryX=1;entryY=0.3333333333333333;entryDx=0;entryDy=0;entryPerimeter=0;strokeWidth=3;fontSize=15;fillColor=#f8cecc;strokeColor=#b85450;" parent="1" source="g5VERlOW1ZfgeuzxMmwW-3" target="g5VERlOW1ZfgeuzxMmwW-4" edge="1">
          <mxGeometry relative="1" as="geometry">
            <Array as="points">
              <mxPoint x="517" y="67" />
              <mxPoint x="307" y="67" />
              <mxPoint x="307" y="100" />
            </Array>
          </mxGeometry>
        </mxCell>
        <mxCell id="g5VERlOW1ZfgeuzxMmwW-3" value="&lt;font style=&quot;font-size: 15px;&quot;&gt;Results collecting&lt;/font&gt;" style="rounded=0;whiteSpace=wrap;html=1;" parent="1" vertex="1">
          <mxGeometry x="455" y="78" width="130" height="60" as="geometry" />
        </mxCell>
        <mxCell id="g5VERlOW1ZfgeuzxMmwW-5" style="edgeStyle=orthogonalEdgeStyle;rounded=0;orthogonalLoop=1;jettySize=auto;html=1;entryX=0;entryY=0.5;entryDx=0;entryDy=0;strokeWidth=3;fillColor=#dae8fc;strokeColor=#6c8ebf;" parent="1" source="g5VERlOW1ZfgeuzxMmwW-4" target="g5VERlOW1ZfgeuzxMmwW-2" edge="1">
          <mxGeometry relative="1" as="geometry" />
        </mxCell>
        <mxCell id="g5VERlOW1ZfgeuzxMmwW-4" value="" style="shape=umlActor;verticalLabelPosition=bottom;verticalAlign=top;html=1;outlineConnect=0;" parent="1" vertex="1">
          <mxGeometry x="132" y="78" width="30" height="60" as="geometry" />
        </mxCell>
        <mxCell id="g5VERlOW1ZfgeuzxMmwW-40" style="edgeStyle=orthogonalEdgeStyle;rounded=0;orthogonalLoop=1;jettySize=auto;html=1;exitX=0.5;exitY=1;exitDx=0;exitDy=0;strokeWidth=3;fontSize=15;fillColor=#f8cecc;strokeColor=#b85450;" parent="1" source="Ln5rSQXUUOAW7J74toT3-5" target="g5VERlOW1ZfgeuzxMmwW-3" edge="1">
          <mxGeometry relative="1" as="geometry">
            <Array as="points">
              <mxPoint x="545" y="340" />
              <mxPoint x="640" y="340" />
              <mxPoint x="640" y="180" />
              <mxPoint x="520" y="180" />
            </Array>
            <mxPoint x="557" y="464" as="sourcePoint" />
          </mxGeometry>
        </mxCell>
        <mxCell id="g5VERlOW1ZfgeuzxMmwW-33" style="edgeStyle=orthogonalEdgeStyle;rounded=0;orthogonalLoop=1;jettySize=auto;html=1;exitX=0.5;exitY=1;exitDx=0;exitDy=0;fontSize=15;fillColor=#dae8fc;strokeColor=#6c8ebf;strokeWidth=3;" parent="1" source="g5VERlOW1ZfgeuzxMmwW-2" target="Ln5rSQXUUOAW7J74toT3-1" edge="1">
          <mxGeometry relative="1" as="geometry">
            <mxPoint x="277" y="213" as="targetPoint" />
            <Array as="points">
              <mxPoint x="380" y="200" />
              <mxPoint x="205" y="200" />
            </Array>
          </mxGeometry>
        </mxCell>
        <mxCell id="g5VERlOW1ZfgeuzxMmwW-42" value="API Endpoint" style="text;html=1;strokeColor=none;fillColor=none;align=center;verticalAlign=middle;whiteSpace=wrap;rounded=0;fontSize=15;" parent="1" vertex="1">
          <mxGeometry x="315" y="33" width="105" height="30" as="geometry" />
        </mxCell>
        <mxCell id="3ar5mSOZTnvIaLqr1Wca-1" value="&lt;div&gt;1&lt;/div&gt;" style="text;html=1;strokeColor=#6c8ebf;fillColor=#dae8fc;align=center;verticalAlign=middle;whiteSpace=wrap;rounded=0;fontSize=20;" parent="1" vertex="1">
          <mxGeometry x="190" y="117" width="28" height="30" as="geometry" />
        </mxCell>
        <mxCell id="3ar5mSOZTnvIaLqr1Wca-3" value="&lt;div&gt;2&lt;/div&gt;" style="text;html=1;strokeColor=#6c8ebf;fillColor=#dae8fc;align=center;verticalAlign=middle;whiteSpace=wrap;rounded=0;fontSize=20;" parent="1" vertex="1">
          <mxGeometry x="340" y="160" width="28" height="30" as="geometry" />
        </mxCell>
        <mxCell id="3ar5mSOZTnvIaLqr1Wca-6" value="4" style="text;html=1;strokeColor=#b85450;fillColor=#f8cecc;align=center;verticalAlign=middle;whiteSpace=wrap;rounded=0;fontSize=20;" parent="1" vertex="1">
          <mxGeometry x="190" y="63" width="28" height="30" as="geometry" />
        </mxCell>
        <mxCell id="Ln5rSQXUUOAW7J74toT3-7" style="edgeStyle=orthogonalEdgeStyle;rounded=0;orthogonalLoop=1;jettySize=auto;html=1;exitX=0.5;exitY=1;exitDx=0;exitDy=0;entryX=0.5;entryY=1;entryDx=0;entryDy=0;fontSize=15;fillColor=#f8cecc;strokeColor=#b85450;strokeWidth=3;" parent="1" source="Ln5rSQXUUOAW7J74toT3-1" target="g5VERlOW1ZfgeuzxMmwW-3" edge="1">
          <mxGeometry relative="1" as="geometry">
            <Array as="points">
              <mxPoint x="205" y="340" />
              <mxPoint x="640" y="340" />
              <mxPoint x="640" y="180" />
              <mxPoint x="520" y="180" />
            </Array>
          </mxGeometry>
        </mxCell>
        <mxCell id="Ln5rSQXUUOAW7J74toT3-1" value="Voice request processing" style="rounded=0;whiteSpace=wrap;html=1;fontSize=15;" parent="1" vertex="1">
          <mxGeometry x="140" y="220" width="130" height="90" as="geometry" />
        </mxCell>
        <mxCell id="Ln5rSQXUUOAW7J74toT3-8" style="edgeStyle=orthogonalEdgeStyle;rounded=0;orthogonalLoop=1;jettySize=auto;html=1;exitX=0.5;exitY=1;exitDx=0;exitDy=0;entryX=0.5;entryY=1;entryDx=0;entryDy=0;strokeWidth=3;fontSize=15;fillColor=#f8cecc;strokeColor=#b85450;" parent="1" source="Ln5rSQXUUOAW7J74toT3-4" target="g5VERlOW1ZfgeuzxMmwW-3" edge="1">
          <mxGeometry relative="1" as="geometry">
            <Array as="points">
              <mxPoint x="375" y="340" />
              <mxPoint x="640" y="340" />
              <mxPoint x="640" y="180" />
              <mxPoint x="520" y="180" />
            </Array>
          </mxGeometry>
        </mxCell>
        <mxCell id="Ln5rSQXUUOAW7J74toT3-4" value="Image request processing" style="rounded=0;whiteSpace=wrap;html=1;fontSize=15;" parent="1" vertex="1">
          <mxGeometry x="310" y="220" width="130" height="90" as="geometry" />
        </mxCell>
        <mxCell id="Ln5rSQXUUOAW7J74toT3-5" value="Video request processing" style="rounded=0;whiteSpace=wrap;html=1;fontSize=15;" parent="1" vertex="1">
          <mxGeometry x="480" y="220" width="130" height="90" as="geometry" />
        </mxCell>
        <mxCell id="Ln5rSQXUUOAW7J74toT3-6" value="3" style="text;html=1;strokeColor=#b85450;fillColor=#f8cecc;align=center;verticalAlign=middle;whiteSpace=wrap;rounded=0;fontSize=20;" parent="1" vertex="1">
          <mxGeometry x="650" y="310" width="28" height="30" as="geometry" />
        </mxCell>
      </root>
    </mxGraphModel>
  </diagram>
  <diagram id="iYgKKDjFYBqZWJy897cu" name="Request processing">
    <mxGraphModel dx="1434" dy="774" grid="1" gridSize="10" guides="1" tooltips="1" connect="1" arrows="1" fold="1" page="1" pageScale="1" pageWidth="827" pageHeight="1169" math="0" shadow="0">
      <root>
        <mxCell id="0" />
        <mxCell id="1" parent="0" />
        <mxCell id="QdZ-DkghfYGt5F6dJOM3-1" value="" style="rounded=0;whiteSpace=wrap;html=1;" parent="1" vertex="1">
          <mxGeometry x="50" y="60" width="710" height="332" as="geometry" />
        </mxCell>
        <mxCell id="QdZ-DkghfYGt5F6dJOM3-2" style="edgeStyle=orthogonalEdgeStyle;rounded=0;orthogonalLoop=1;jettySize=auto;html=1;exitX=0.25;exitY=1;exitDx=0;exitDy=0;entryX=0.75;entryY=0;entryDx=0;entryDy=0;strokeWidth=3;fontSize=15;fillColor=#dae8fc;strokeColor=#6c8ebf;" parent="1" source="QdZ-DkghfYGt5F6dJOM3-5" target="QdZ-DkghfYGt5F6dJOM3-7" edge="1">
          <mxGeometry relative="1" as="geometry" />
        </mxCell>
        <mxCell id="QdZ-DkghfYGt5F6dJOM3-3" style="edgeStyle=orthogonalEdgeStyle;rounded=0;orthogonalLoop=1;jettySize=auto;html=1;exitX=0.25;exitY=1;exitDx=0;exitDy=0;strokeWidth=3;fontSize=15;fillColor=#dae8fc;strokeColor=#6c8ebf;" parent="1" source="QdZ-DkghfYGt5F6dJOM3-5" target="QdZ-DkghfYGt5F6dJOM3-9" edge="1">
          <mxGeometry relative="1" as="geometry" />
        </mxCell>
        <mxCell id="QdZ-DkghfYGt5F6dJOM3-4" style="edgeStyle=orthogonalEdgeStyle;rounded=0;orthogonalLoop=1;jettySize=auto;html=1;exitX=0.25;exitY=1;exitDx=0;exitDy=0;strokeWidth=3;fontSize=15;fillColor=#dae8fc;strokeColor=#6c8ebf;" parent="1" source="QdZ-DkghfYGt5F6dJOM3-5" target="QdZ-DkghfYGt5F6dJOM3-11" edge="1">
          <mxGeometry relative="1" as="geometry" />
        </mxCell>
        <mxCell id="QdZ-DkghfYGt5F6dJOM3-5" value="" style="rounded=0;whiteSpace=wrap;html=1;" parent="1" vertex="1">
          <mxGeometry x="72" y="105" width="410" height="80" as="geometry" />
        </mxCell>
        <mxCell id="QdZ-DkghfYGt5F6dJOM3-6" style="edgeStyle=orthogonalEdgeStyle;rounded=0;orthogonalLoop=1;jettySize=auto;html=1;exitX=0.5;exitY=1;exitDx=0;exitDy=0;strokeWidth=3;fontSize=15;fillColor=#f8cecc;strokeColor=#b85450;" parent="1" edge="1">
          <mxGeometry relative="1" as="geometry">
            <mxPoint x="740" y="42" as="targetPoint" />
            <mxPoint x="157" y="354" as="sourcePoint" />
            <Array as="points">
              <mxPoint x="157" y="382" />
              <mxPoint x="740" y="382" />
            </Array>
          </mxGeometry>
        </mxCell>
        <mxCell id="QdZ-DkghfYGt5F6dJOM3-7" value="&lt;font style=&quot;font-size: 15px;&quot;&gt;Processing unit&lt;/font&gt;" style="rounded=0;whiteSpace=wrap;html=1;" parent="1" vertex="1">
          <mxGeometry x="72" y="251" width="170" height="105" as="geometry" />
        </mxCell>
        <mxCell id="QdZ-DkghfYGt5F6dJOM3-8" style="edgeStyle=orthogonalEdgeStyle;rounded=0;orthogonalLoop=1;jettySize=auto;html=1;exitX=0.5;exitY=1;exitDx=0;exitDy=0;strokeWidth=3;fontSize=15;fillColor=#f8cecc;strokeColor=#b85450;" parent="1" source="QdZ-DkghfYGt5F6dJOM3-9" edge="1">
          <mxGeometry relative="1" as="geometry">
            <Array as="points">
              <mxPoint x="357" y="382" />
              <mxPoint x="740" y="382" />
            </Array>
            <mxPoint x="740" y="42" as="targetPoint" />
          </mxGeometry>
        </mxCell>
        <mxCell id="QdZ-DkghfYGt5F6dJOM3-9" value="&lt;font style=&quot;font-size: 15px;&quot;&gt;Processing unit&lt;/font&gt;" style="rounded=0;whiteSpace=wrap;html=1;" parent="1" vertex="1">
          <mxGeometry x="272" y="251" width="170" height="105" as="geometry" />
        </mxCell>
        <mxCell id="QdZ-DkghfYGt5F6dJOM3-10" style="edgeStyle=orthogonalEdgeStyle;rounded=0;orthogonalLoop=1;jettySize=auto;html=1;exitX=0.5;exitY=1;exitDx=0;exitDy=0;strokeWidth=3;fontSize=15;fillColor=#f8cecc;strokeColor=#b85450;" parent="1" source="QdZ-DkghfYGt5F6dJOM3-11" edge="1">
          <mxGeometry relative="1" as="geometry">
            <Array as="points">
              <mxPoint x="557" y="382" />
              <mxPoint x="740" y="382" />
            </Array>
            <mxPoint x="740" y="42" as="targetPoint" />
          </mxGeometry>
        </mxCell>
        <mxCell id="QdZ-DkghfYGt5F6dJOM3-11" value="&lt;font style=&quot;font-size: 15px;&quot;&gt;Processing unit&lt;/font&gt;" style="rounded=0;whiteSpace=wrap;html=1;" parent="1" vertex="1">
          <mxGeometry x="472" y="251" width="170" height="105" as="geometry" />
        </mxCell>
        <mxCell id="QdZ-DkghfYGt5F6dJOM3-12" value="&lt;font style=&quot;font-size: 20px;&quot;&gt;...&lt;/font&gt;" style="text;html=1;strokeColor=none;fillColor=none;align=center;verticalAlign=middle;whiteSpace=wrap;rounded=0;" parent="1" vertex="1">
          <mxGeometry x="660" y="281.5" width="60" height="30" as="geometry" />
        </mxCell>
        <mxCell id="QdZ-DkghfYGt5F6dJOM3-13" value="" style="rounded=0;whiteSpace=wrap;html=1;fontSize=15;" parent="1" vertex="1">
          <mxGeometry x="82" y="145" width="30" height="30" as="geometry" />
        </mxCell>
        <mxCell id="QdZ-DkghfYGt5F6dJOM3-14" value="" style="rounded=0;whiteSpace=wrap;html=1;fontSize=15;" parent="1" vertex="1">
          <mxGeometry x="112" y="145" width="30" height="30" as="geometry" />
        </mxCell>
        <mxCell id="QdZ-DkghfYGt5F6dJOM3-15" value="" style="rounded=0;whiteSpace=wrap;html=1;fontSize=15;" parent="1" vertex="1">
          <mxGeometry x="142" y="145" width="30" height="30" as="geometry" />
        </mxCell>
        <mxCell id="QdZ-DkghfYGt5F6dJOM3-16" value="" style="rounded=0;whiteSpace=wrap;html=1;fontSize=15;" parent="1" vertex="1">
          <mxGeometry x="172" y="145" width="30" height="30" as="geometry" />
        </mxCell>
        <mxCell id="QdZ-DkghfYGt5F6dJOM3-17" value="" style="rounded=0;whiteSpace=wrap;html=1;fontSize=15;" parent="1" vertex="1">
          <mxGeometry x="202" y="145" width="30" height="30" as="geometry" />
        </mxCell>
        <mxCell id="QdZ-DkghfYGt5F6dJOM3-18" value="" style="rounded=0;whiteSpace=wrap;html=1;fontSize=15;" parent="1" vertex="1">
          <mxGeometry x="232" y="145" width="30" height="30" as="geometry" />
        </mxCell>
        <mxCell id="QdZ-DkghfYGt5F6dJOM3-19" value="" style="rounded=0;whiteSpace=wrap;html=1;fontSize=15;" parent="1" vertex="1">
          <mxGeometry x="262" y="145" width="30" height="30" as="geometry" />
        </mxCell>
        <mxCell id="QdZ-DkghfYGt5F6dJOM3-20" value="" style="rounded=0;whiteSpace=wrap;html=1;fontSize=15;" parent="1" vertex="1">
          <mxGeometry x="292" y="145" width="30" height="30" as="geometry" />
        </mxCell>
        <mxCell id="QdZ-DkghfYGt5F6dJOM3-21" value="" style="rounded=0;whiteSpace=wrap;html=1;fontSize=15;" parent="1" vertex="1">
          <mxGeometry x="322" y="145" width="30" height="30" as="geometry" />
        </mxCell>
        <mxCell id="QdZ-DkghfYGt5F6dJOM3-22" value="" style="rounded=0;whiteSpace=wrap;html=1;fontSize=15;" parent="1" vertex="1">
          <mxGeometry x="352" y="145" width="30" height="30" as="geometry" />
        </mxCell>
        <mxCell id="QdZ-DkghfYGt5F6dJOM3-23" value="" style="rounded=0;whiteSpace=wrap;html=1;fontSize=15;" parent="1" vertex="1">
          <mxGeometry x="382" y="145" width="30" height="30" as="geometry" />
        </mxCell>
        <mxCell id="QdZ-DkghfYGt5F6dJOM3-24" value="" style="rounded=0;whiteSpace=wrap;html=1;fontSize=15;" parent="1" vertex="1">
          <mxGeometry x="412" y="145" width="30" height="30" as="geometry" />
        </mxCell>
        <mxCell id="QdZ-DkghfYGt5F6dJOM3-25" value="" style="rounded=0;whiteSpace=wrap;html=1;fontSize=15;" parent="1" vertex="1">
          <mxGeometry x="442" y="145" width="30" height="30" as="geometry" />
        </mxCell>
        <mxCell id="QdZ-DkghfYGt5F6dJOM3-26" value="Procesing queue" style="text;html=1;strokeColor=none;fillColor=none;align=center;verticalAlign=middle;whiteSpace=wrap;rounded=0;fontSize=15;" parent="1" vertex="1">
          <mxGeometry x="82" y="112" width="130" height="30" as="geometry" />
        </mxCell>
        <mxCell id="QdZ-DkghfYGt5F6dJOM3-27" style="edgeStyle=orthogonalEdgeStyle;rounded=0;orthogonalLoop=1;jettySize=auto;html=1;fontSize=15;fillColor=#dae8fc;strokeColor=#6c8ebf;strokeWidth=3;" parent="1" target="QdZ-DkghfYGt5F6dJOM3-5" edge="1">
          <mxGeometry relative="1" as="geometry">
            <mxPoint x="277" y="42" as="sourcePoint" />
            <Array as="points">
              <mxPoint x="277" y="42" />
            </Array>
          </mxGeometry>
        </mxCell>
        <mxCell id="QdZ-DkghfYGt5F6dJOM3-29" value="1" style="text;html=1;strokeColor=#6c8ebf;fillColor=#dae8fc;align=center;verticalAlign=middle;whiteSpace=wrap;rounded=0;fontSize=20;" parent="1" vertex="1">
          <mxGeometry x="292" y="42" width="28" height="30" as="geometry" />
        </mxCell>
        <mxCell id="QdZ-DkghfYGt5F6dJOM3-30" value="2" style="text;html=1;strokeColor=#6c8ebf;fillColor=#dae8fc;align=center;verticalAlign=middle;whiteSpace=wrap;rounded=0;fontSize=20;" parent="1" vertex="1">
          <mxGeometry x="530" y="179" width="28" height="30" as="geometry" />
        </mxCell>
        <mxCell id="QdZ-DkghfYGt5F6dJOM3-31" value="3" style="text;html=1;strokeColor=#b85450;fillColor=#f8cecc;align=center;verticalAlign=middle;whiteSpace=wrap;rounded=0;fontSize=20;" parent="1" vertex="1">
          <mxGeometry x="692" y="342" width="28" height="30" as="geometry" />
        </mxCell>
        <mxCell id="3A8RYPxs7Pxt0Ph5-5x_-1" value="Requet processing" style="text;html=1;strokeColor=none;fillColor=none;align=left;verticalAlign=middle;whiteSpace=wrap;rounded=0;fontSize=15;" parent="1" vertex="1">
          <mxGeometry x="72" y="68" width="170" height="30" as="geometry" />
        </mxCell>
      </root>
    </mxGraphModel>
  </diagram>
  <diagram id="V_PbvakI0IcBk1PU6ZK6" name="Processing unit">
    <mxGraphModel dx="1195" dy="645" grid="1" gridSize="10" guides="1" tooltips="1" connect="1" arrows="1" fold="1" page="1" pageScale="1" pageWidth="827" pageHeight="1169" math="0" shadow="0">
      <root>
        <mxCell id="0" />
        <mxCell id="1" parent="0" />
        <mxCell id="pYKt1Lo5sw4IARgz9tjj-1" value="" style="rounded=0;whiteSpace=wrap;html=1;fontSize=15;" parent="1" vertex="1">
          <mxGeometry x="21" y="46" width="660" height="470" as="geometry" />
        </mxCell>
        <mxCell id="pYKt1Lo5sw4IARgz9tjj-17" style="edgeStyle=orthogonalEdgeStyle;rounded=0;orthogonalLoop=1;jettySize=auto;html=1;exitX=1;exitY=0.5;exitDx=0;exitDy=0;strokeWidth=3;fontSize=15;" parent="1" source="pYKt1Lo5sw4IARgz9tjj-2" target="pYKt1Lo5sw4IARgz9tjj-14" edge="1">
          <mxGeometry relative="1" as="geometry" />
        </mxCell>
        <mxCell id="pYKt1Lo5sw4IARgz9tjj-2" value="Data preparation" style="rounded=0;whiteSpace=wrap;html=1;fontSize=15;" parent="1" vertex="1">
          <mxGeometry x="65" y="203" width="130" height="60" as="geometry" />
        </mxCell>
        <mxCell id="pYKt1Lo5sw4IARgz9tjj-18" style="edgeStyle=orthogonalEdgeStyle;rounded=0;orthogonalLoop=1;jettySize=auto;html=1;exitX=1;exitY=0.5;exitDx=0;exitDy=0;entryX=0;entryY=0.5;entryDx=0;entryDy=0;strokeWidth=3;fontSize=15;" parent="1" source="pYKt1Lo5sw4IARgz9tjj-14" target="pYKt1Lo5sw4IARgz9tjj-15" edge="1">
          <mxGeometry relative="1" as="geometry" />
        </mxCell>
        <mxCell id="pYKt1Lo5sw4IARgz9tjj-14" value="Detection method" style="rounded=0;whiteSpace=wrap;html=1;fontSize=15;" parent="1" vertex="1">
          <mxGeometry x="232" y="203" width="240" height="60" as="geometry" />
        </mxCell>
        <mxCell id="zS9wiUEox6_OfU--5Kza-8" style="edgeStyle=orthogonalEdgeStyle;rounded=0;orthogonalLoop=1;jettySize=auto;html=1;exitX=1;exitY=0.5;exitDx=0;exitDy=0;entryX=1;entryY=0.5;entryDx=0;entryDy=0;strokeWidth=3;" edge="1" parent="1" source="pYKt1Lo5sw4IARgz9tjj-15" target="zS9wiUEox6_OfU--5Kza-1">
          <mxGeometry relative="1" as="geometry" />
        </mxCell>
        <mxCell id="pYKt1Lo5sw4IARgz9tjj-15" value="Results generalization" style="rounded=0;whiteSpace=wrap;html=1;fontSize=15;" parent="1" vertex="1">
          <mxGeometry x="505" y="203" width="130" height="60" as="geometry" />
        </mxCell>
        <mxCell id="pYKt1Lo5sw4IARgz9tjj-35" style="edgeStyle=orthogonalEdgeStyle;rounded=0;orthogonalLoop=1;jettySize=auto;html=1;exitX=1;exitY=0.5;exitDx=0;exitDy=0;strokeWidth=3;fontSize=15;" parent="1" source="pYKt1Lo5sw4IARgz9tjj-36" target="pYKt1Lo5sw4IARgz9tjj-38" edge="1">
          <mxGeometry relative="1" as="geometry" />
        </mxCell>
        <mxCell id="pYKt1Lo5sw4IARgz9tjj-36" value="Data preparation" style="rounded=0;whiteSpace=wrap;html=1;fontSize=15;" parent="1" vertex="1">
          <mxGeometry x="65" y="302" width="130" height="60" as="geometry" />
        </mxCell>
        <mxCell id="pYKt1Lo5sw4IARgz9tjj-37" style="edgeStyle=orthogonalEdgeStyle;rounded=0;orthogonalLoop=1;jettySize=auto;html=1;exitX=1;exitY=0.5;exitDx=0;exitDy=0;entryX=0;entryY=0.5;entryDx=0;entryDy=0;strokeWidth=3;fontSize=15;" parent="1" source="pYKt1Lo5sw4IARgz9tjj-38" target="pYKt1Lo5sw4IARgz9tjj-39" edge="1">
          <mxGeometry relative="1" as="geometry" />
        </mxCell>
        <mxCell id="pYKt1Lo5sw4IARgz9tjj-38" value="Detection method" style="rounded=0;whiteSpace=wrap;html=1;fontSize=15;" parent="1" vertex="1">
          <mxGeometry x="232" y="302" width="240" height="60" as="geometry" />
        </mxCell>
        <mxCell id="zS9wiUEox6_OfU--5Kza-7" style="edgeStyle=orthogonalEdgeStyle;rounded=0;orthogonalLoop=1;jettySize=auto;html=1;exitX=1;exitY=0.5;exitDx=0;exitDy=0;entryX=1;entryY=0.5;entryDx=0;entryDy=0;strokeWidth=3;" edge="1" parent="1" source="pYKt1Lo5sw4IARgz9tjj-39" target="zS9wiUEox6_OfU--5Kza-1">
          <mxGeometry relative="1" as="geometry" />
        </mxCell>
        <mxCell id="pYKt1Lo5sw4IARgz9tjj-39" value="Results generalization" style="rounded=0;whiteSpace=wrap;html=1;fontSize=15;" parent="1" vertex="1">
          <mxGeometry x="505" y="302" width="130" height="60" as="geometry" />
        </mxCell>
        <mxCell id="pYKt1Lo5sw4IARgz9tjj-42" style="edgeStyle=orthogonalEdgeStyle;rounded=0;orthogonalLoop=1;jettySize=auto;html=1;exitX=1;exitY=0.5;exitDx=0;exitDy=0;strokeWidth=3;fontSize=15;" parent="1" source="pYKt1Lo5sw4IARgz9tjj-43" target="pYKt1Lo5sw4IARgz9tjj-45" edge="1">
          <mxGeometry relative="1" as="geometry" />
        </mxCell>
        <mxCell id="pYKt1Lo5sw4IARgz9tjj-43" value="Data preparation" style="rounded=0;whiteSpace=wrap;html=1;fontSize=15;" parent="1" vertex="1">
          <mxGeometry x="65" y="402" width="130" height="60" as="geometry" />
        </mxCell>
        <mxCell id="pYKt1Lo5sw4IARgz9tjj-44" style="edgeStyle=orthogonalEdgeStyle;rounded=0;orthogonalLoop=1;jettySize=auto;html=1;exitX=1;exitY=0.5;exitDx=0;exitDy=0;entryX=0;entryY=0.5;entryDx=0;entryDy=0;strokeWidth=3;fontSize=15;" parent="1" source="pYKt1Lo5sw4IARgz9tjj-45" target="pYKt1Lo5sw4IARgz9tjj-46" edge="1">
          <mxGeometry relative="1" as="geometry" />
        </mxCell>
        <mxCell id="pYKt1Lo5sw4IARgz9tjj-45" value="Detection method" style="rounded=0;whiteSpace=wrap;html=1;fontSize=15;" parent="1" vertex="1">
          <mxGeometry x="232" y="402" width="240" height="60" as="geometry" />
        </mxCell>
        <mxCell id="zS9wiUEox6_OfU--5Kza-6" style="edgeStyle=orthogonalEdgeStyle;rounded=0;orthogonalLoop=1;jettySize=auto;html=1;exitX=1;exitY=0.5;exitDx=0;exitDy=0;entryX=1;entryY=0.5;entryDx=0;entryDy=0;strokeWidth=3;" edge="1" parent="1" source="pYKt1Lo5sw4IARgz9tjj-46" target="zS9wiUEox6_OfU--5Kza-1">
          <mxGeometry relative="1" as="geometry" />
        </mxCell>
        <mxCell id="pYKt1Lo5sw4IARgz9tjj-46" value="Results generalization" style="rounded=0;whiteSpace=wrap;html=1;fontSize=15;" parent="1" vertex="1">
          <mxGeometry x="505" y="402" width="130" height="60" as="geometry" />
        </mxCell>
        <mxCell id="pYKt1Lo5sw4IARgz9tjj-49" value="..." style="text;strokeColor=none;fillColor=none;align=center;verticalAlign=middle;whiteSpace=wrap;rounded=0;fontSize=20;direction=west;rotation=90;" parent="1" vertex="1">
          <mxGeometry x="332" y="478" width="60" height="30" as="geometry" />
        </mxCell>
        <mxCell id="pYKt1Lo5sw4IARgz9tjj-50" value="Processing unit" style="text;html=1;strokeColor=none;fillColor=none;align=left;verticalAlign=middle;whiteSpace=wrap;rounded=0;fontSize=20;" parent="1" vertex="1">
          <mxGeometry x="41" y="66" width="180" height="30" as="geometry" />
        </mxCell>
        <mxCell id="zS9wiUEox6_OfU--5Kza-3" style="edgeStyle=orthogonalEdgeStyle;rounded=0;orthogonalLoop=1;jettySize=auto;html=1;exitX=0;exitY=0.5;exitDx=0;exitDy=0;entryX=0;entryY=0.5;entryDx=0;entryDy=0;strokeWidth=3;" edge="1" parent="1" source="zS9wiUEox6_OfU--5Kza-1" target="pYKt1Lo5sw4IARgz9tjj-2">
          <mxGeometry relative="1" as="geometry" />
        </mxCell>
        <mxCell id="zS9wiUEox6_OfU--5Kza-4" style="edgeStyle=orthogonalEdgeStyle;rounded=0;orthogonalLoop=1;jettySize=auto;html=1;exitX=0;exitY=0.5;exitDx=0;exitDy=0;entryX=0;entryY=0.5;entryDx=0;entryDy=0;strokeWidth=3;" edge="1" parent="1" source="zS9wiUEox6_OfU--5Kza-1" target="pYKt1Lo5sw4IARgz9tjj-36">
          <mxGeometry relative="1" as="geometry" />
        </mxCell>
        <mxCell id="zS9wiUEox6_OfU--5Kza-5" style="edgeStyle=orthogonalEdgeStyle;rounded=0;orthogonalLoop=1;jettySize=auto;html=1;exitX=0;exitY=0.5;exitDx=0;exitDy=0;entryX=0;entryY=0.5;entryDx=0;entryDy=0;strokeWidth=3;" edge="1" parent="1" source="zS9wiUEox6_OfU--5Kza-1" target="pYKt1Lo5sw4IARgz9tjj-43">
          <mxGeometry relative="1" as="geometry" />
        </mxCell>
        <mxCell id="zS9wiUEox6_OfU--5Kza-9" style="edgeStyle=orthogonalEdgeStyle;rounded=0;orthogonalLoop=1;jettySize=auto;html=1;exitX=0.5;exitY=0;exitDx=0;exitDy=0;strokeWidth=3;startArrow=classic;startFill=1;" edge="1" parent="1" source="zS9wiUEox6_OfU--5Kza-1">
          <mxGeometry relative="1" as="geometry">
            <mxPoint x="345" y="10" as="targetPoint" />
            <Array as="points">
              <mxPoint x="345" y="16" />
            </Array>
          </mxGeometry>
        </mxCell>
        <mxCell id="zS9wiUEox6_OfU--5Kza-1" value="&lt;div&gt;Controller&lt;/div&gt;" style="rounded=0;whiteSpace=wrap;html=1;fontSize=15;" vertex="1" parent="1">
          <mxGeometry x="280" y="106" width="130" height="60" as="geometry" />
        </mxCell>
      </root>
    </mxGraphModel>
  </diagram>
  <diagram id="E7rNfogvP6eI7b1j_x-Q" name="Wireframes">
    <mxGraphModel dx="1366" dy="737" grid="1" gridSize="10" guides="1" tooltips="1" connect="1" arrows="1" fold="1" page="1" pageScale="1" pageWidth="827" pageHeight="1169" math="0" shadow="0">
      <root>
        <mxCell id="0" />
        <mxCell id="1" parent="0" />
        <mxCell id="N7sEOZ7xVOHTOeoTomxm-102" value="" style="group" parent="1" vertex="1" connectable="0">
          <mxGeometry x="10" y="10" width="400" height="250" as="geometry" />
        </mxCell>
        <mxCell id="N7sEOZ7xVOHTOeoTomxm-11" value="" style="rounded=0;whiteSpace=wrap;html=1;fontSize=10;movable=1;resizable=1;rotatable=1;deletable=1;editable=1;connectable=1;" parent="N7sEOZ7xVOHTOeoTomxm-102" vertex="1">
          <mxGeometry width="400" height="250" as="geometry" />
        </mxCell>
        <mxCell id="N7sEOZ7xVOHTOeoTomxm-6" value="" style="rounded=0;whiteSpace=wrap;html=1;fontSize=20;movable=1;resizable=1;rotatable=1;deletable=1;editable=1;connectable=1;" parent="N7sEOZ7xVOHTOeoTomxm-102" vertex="1">
          <mxGeometry x="269" y="65" width="100" height="120" as="geometry" />
        </mxCell>
        <mxCell id="N7sEOZ7xVOHTOeoTomxm-5" value="" style="rounded=0;whiteSpace=wrap;html=1;fontSize=20;fontStyle=1;movable=1;resizable=1;rotatable=1;deletable=1;editable=1;connectable=1;" parent="N7sEOZ7xVOHTOeoTomxm-102" vertex="1">
          <mxGeometry x="31" y="65" width="100" height="120" as="geometry" />
        </mxCell>
        <mxCell id="N7sEOZ7xVOHTOeoTomxm-4" value="" style="rounded=0;whiteSpace=wrap;html=1;fontSize=20;movable=1;resizable=1;rotatable=1;deletable=1;editable=1;connectable=1;" parent="N7sEOZ7xVOHTOeoTomxm-102" vertex="1">
          <mxGeometry x="151" y="65" width="100" height="120" as="geometry" />
        </mxCell>
        <mxCell id="N7sEOZ7xVOHTOeoTomxm-1" value="" style="shape=image;verticalLabelPosition=bottom;labelBackgroundColor=default;verticalAlign=top;aspect=fixed;imageAspect=0;image=data:image/svg+xml,PHN2ZyB3aWR0aD0iNDgiIGhlaWdodD0iNDgiIHhtbG5zPSJodHRwOi8vd3d3LnczLm9yZy8yMDAwL3N2ZyIgdmlld0JveD0iMCAwIDQ4IDQ4Ij48cGF0aCBkPSJNMjIuNSAzNEgxNHEtNC4xNSAwLTcuMDc1LTIuOTI1VDQgMjRxMC00LjE1IDIuOTI1LTcuMDc1VDE0IDE0aDguNXYzSDE0cS0yLjkgMC00Ljk1IDIuMDVRNyAyMS4xIDcgMjRxMCAyLjkgMi4wNSA0Ljk1UTExLjEgMzEgMTQgMzFoOC41Wm0tNi4yNS04LjV2LTNoMTUuNXYzWk0yNS41IDM0di0zSDM0cTIuOSAwIDQuOTUtMi4wNVE0MSAyNi45IDQxIDI0cTAtMi45LTIuMDUtNC45NVEzNi45IDE3IDM0IDE3aC04LjV2LTNIMzRxNC4xNSAwIDcuMDc1IDIuOTI1VDQ0IDI0cTAgNC4xNS0yLjkyNSA3LjA3NVQzNCAzNFoiLz48L3N2Zz4=;movable=1;resizable=1;rotatable=1;deletable=1;editable=1;connectable=1;" parent="N7sEOZ7xVOHTOeoTomxm-102" vertex="1">
          <mxGeometry x="295" y="91" width="48" height="48" as="geometry" />
        </mxCell>
        <mxCell id="N7sEOZ7xVOHTOeoTomxm-2" value="" style="shape=image;verticalLabelPosition=bottom;labelBackgroundColor=default;verticalAlign=top;aspect=fixed;imageAspect=0;image=data:image/svg+xml,PHN2ZyB3aWR0aD0iNDgiIGhlaWdodD0iNDgiIHhtbG5zPSJodHRwOi8vd3d3LnczLm9yZy8yMDAwL3N2ZyIgdmlld0JveD0iMCAwIDQ4IDQ4Ij48cGF0aCBkPSJNMTEgNDRxLTEuMiAwLTIuMS0uOVE4IDQyLjIgOCA0MVY3cTAtMS4yLjktMi4xUTkuOCA0IDExIDRoMTguMDVMNDAgMTQuOTVWNDFxMCAxLjItLjkgMi4xLS45LjktMi4xLjlabTE2LjU1LTI3LjdWN0gxMXYzNGgyNlYxNi4zWk0xMSA3djkuM1Y3djM0VjdaIi8+PC9zdmc+;movable=1;resizable=1;rotatable=1;deletable=1;editable=1;connectable=1;" parent="N7sEOZ7xVOHTOeoTomxm-102" vertex="1">
          <mxGeometry x="177" y="91" width="48" height="48" as="geometry" />
        </mxCell>
        <mxCell id="N7sEOZ7xVOHTOeoTomxm-3" value="" style="shape=image;verticalLabelPosition=bottom;labelBackgroundColor=default;verticalAlign=top;aspect=fixed;imageAspect=0;image=data:image/svg+xml,PHN2ZyB3aWR0aD0iNDgiIGhlaWdodD0iNDgiIHhtbG5zPSJodHRwOi8vd3d3LnczLm9yZy8yMDAwL3N2ZyIgdmlld0JveD0iMCAwIDQ4IDQ4Ij48cGF0aCBkPSJNMTUgMzAuNjUgMjAuNDUgMjNoMTAuOUwxNSAxMC4xNVpNMjggNDMuOGwtNy40LTE1Ljg1TDEyIDQwVjRsMjggMjJIMjUuMjVsNy4yNSAxNS43Wk0yMC40NSAyM1oiLz48L3N2Zz4=;movable=1;resizable=1;rotatable=1;deletable=1;editable=1;connectable=1;" parent="N7sEOZ7xVOHTOeoTomxm-102" vertex="1">
          <mxGeometry x="57" y="91" width="48" height="48" as="geometry" />
        </mxCell>
        <mxCell id="N7sEOZ7xVOHTOeoTomxm-7" value="&lt;p style=&quot;line-height: 100%; font-size: 10px;&quot; align=&quot;justify&quot;&gt;&lt;font style=&quot;font-size: 10px;&quot;&gt;Element selection&lt;br&gt;&lt;/font&gt;&lt;/p&gt;" style="text;html=1;strokeColor=none;fillColor=none;align=center;verticalAlign=middle;whiteSpace=wrap;rounded=0;fontSize=20;movable=1;resizable=1;rotatable=1;deletable=1;editable=1;connectable=1;" parent="N7sEOZ7xVOHTOeoTomxm-102" vertex="1">
          <mxGeometry x="31" y="145" width="100" height="30" as="geometry" />
        </mxCell>
        <mxCell id="N7sEOZ7xVOHTOeoTomxm-8" value="&lt;p style=&quot;line-height: 100%; font-size: 10px;&quot;&gt;&lt;font style=&quot;font-size: 10px;&quot;&gt;File upload&lt;br&gt;&lt;/font&gt;&lt;/p&gt;" style="text;html=1;strokeColor=none;fillColor=none;align=center;verticalAlign=middle;whiteSpace=wrap;rounded=0;fontSize=20;movable=1;resizable=1;rotatable=1;deletable=1;editable=1;connectable=1;" parent="N7sEOZ7xVOHTOeoTomxm-102" vertex="1">
          <mxGeometry x="151" y="145" width="100" height="30" as="geometry" />
        </mxCell>
        <mxCell id="N7sEOZ7xVOHTOeoTomxm-9" value="&lt;p style=&quot;line-height: 100%; font-size: 10px;&quot;&gt;&lt;font style=&quot;font-size: 10px;&quot;&gt;Link&lt;/font&gt;&lt;/p&gt;" style="text;html=1;strokeColor=none;fillColor=none;align=center;verticalAlign=middle;whiteSpace=wrap;rounded=0;fontSize=20;movable=1;resizable=1;rotatable=1;deletable=1;editable=1;connectable=1;" parent="N7sEOZ7xVOHTOeoTomxm-102" vertex="1">
          <mxGeometry x="269" y="145" width="100" height="30" as="geometry" />
        </mxCell>
        <mxCell id="N7sEOZ7xVOHTOeoTomxm-12" value="" style="endArrow=none;html=1;rounded=0;strokeWidth=1;fontSize=10;movable=1;resizable=1;rotatable=1;deletable=1;editable=1;connectable=1;" parent="N7sEOZ7xVOHTOeoTomxm-102" edge="1">
          <mxGeometry width="50" height="50" relative="1" as="geometry">
            <mxPoint y="19" as="sourcePoint" />
            <mxPoint x="400" y="19" as="targetPoint" />
          </mxGeometry>
        </mxCell>
        <mxCell id="N7sEOZ7xVOHTOeoTomxm-13" value="Deepfake detector" style="text;html=1;strokeColor=none;fillColor=none;align=center;verticalAlign=middle;whiteSpace=wrap;rounded=0;fontSize=10;movable=1;resizable=1;rotatable=1;deletable=1;editable=1;connectable=1;" parent="N7sEOZ7xVOHTOeoTomxm-102" vertex="1">
          <mxGeometry width="100" height="20" as="geometry" />
        </mxCell>
        <mxCell id="N7sEOZ7xVOHTOeoTomxm-14" value="&lt;div style=&quot;font-size: 10px;&quot; align=&quot;center&quot;&gt;&lt;font style=&quot;font-size: 10px;&quot;&gt;×&lt;/font&gt;&lt;/div&gt;" style="ellipse;whiteSpace=wrap;html=1;aspect=fixed;fontSize=10;align=center;verticalAlign=middle;spacing=0;movable=1;resizable=1;rotatable=1;deletable=1;editable=1;connectable=1;" parent="N7sEOZ7xVOHTOeoTomxm-102" vertex="1">
          <mxGeometry x="384" y="3" width="13" height="13" as="geometry" />
        </mxCell>
        <mxCell id="tpBl7wtEwe1w_ltXdNX6-116" value="" style="shape=image;verticalLabelPosition=bottom;labelBackgroundColor=default;verticalAlign=top;aspect=fixed;imageAspect=0;image=data:image/svg+xml,PHN2ZyB3aWR0aD0iNDgiIGhlaWdodD0iNDgiIHhtbG5zPSJodHRwOi8vd3d3LnczLm9yZy8yMDAwL3N2ZyIgdmlld0JveD0iMCAwIDQ4IDQ4Ij48cGF0aCBkPSJNMTIgMjhoMjR2LTNIMTJabTAtNi41aDI0di0zSDEyWm0wLTYuNWgyNHYtM0gxMlptMzIgMjktOC04SDdxLTEuMTUgMC0yLjA3NS0uOTI1UTQgMzQuMTUgNCAzM1Y3cTAtMS4xNS45MjUtMi4wNzVRNS44NSA0IDcgNGgzNHExLjIgMCAyLjEuOTI1UTQ0IDUuODUgNDQgN1pNNyA3djI2aDMwLjI1TDQxIDM2Ljc1VjdIN1ptMCAwdjI5Ljc1VjdaIi8+PC9zdmc+;container=0;" parent="N7sEOZ7xVOHTOeoTomxm-102" vertex="1">
          <mxGeometry x="382" y="230" width="15" height="15" as="geometry" />
        </mxCell>
        <mxCell id="N7sEOZ7xVOHTOeoTomxm-117" value="" style="shape=image;verticalLabelPosition=bottom;labelBackgroundColor=default;verticalAlign=top;aspect=fixed;imageAspect=0;image=data:image/svg+xml,PHN2ZyB3aWR0aD0iNDgiIGhlaWdodD0iNDgiIHhtbG5zPSJodHRwOi8vd3d3LnczLm9yZy8yMDAwL3N2ZyIgdmlld0JveD0iMCAwIDQ4IDQ4Ij48cGF0aCBkPSJNMzEuMyAyMS4zNXExLjE1IDAgMS45MjUtLjguNzc1LS44Ljc3NS0xLjkgMC0xLjE1LS43NzUtMS45MjUtLjc3NS0uNzc1LTEuOTI1LS43NzUtMS4xIDAtMS45Ljc3NS0uOC43NzUtLjggMS45MjUgMCAxLjEuOCAxLjkuOC44IDEuOS44Wm0tMTQuNiAwcTEuMTUgMCAxLjkyNS0uOC43NzUtLjguNzc1LTEuOSAwLTEuMTUtLjc3NS0xLjkyNS0uNzc1LS43NzUtMS45MjUtLjc3NS0xLjEgMC0xLjkuNzc1LS44Ljc3NS0uOCAxLjkyNSAwIDEuMS44IDEuOS44LjggMS45LjhabTcuMyAxMy42cTMuMyAwIDYuMDc1LTEuNzc1UTMyLjg1IDMxLjQgMzQuMSAyOC4zNUgxMy45cTEuMyAzLjA1IDQuMDUgNC44MjVRMjAuNyAzNC45NSAyNCAzNC45NVpNMjQgNDRxLTQuMTUgMC03LjgtMS41NzUtMy42NS0xLjU3NS02LjM1LTQuMjc1LTIuNy0yLjctNC4yNzUtNi4zNVE0IDI4LjE1IDQgMjR0MS41NzUtNy44UTcuMTUgMTIuNTUgOS44NSA5Ljg1cTIuNy0yLjcgNi4zNS00LjI3NVExOS44NSA0IDI0IDR0Ny44IDEuNTc1cTMuNjUgMS41NzUgNi4zNSA0LjI3NSAyLjcgMi43IDQuMjc1IDYuMzVRNDQgMTkuODUgNDQgMjR0LTEuNTc1IDcuOHEtMS41NzUgMy42NS00LjI3NSA2LjM1LTIuNyAyLjctNi4zNSA0LjI3NVEyOC4xNSA0NCAyNCA0NFptMC0yMFptMCAxN3E3LjEgMCAxMi4wNS00Ljk1UTQxIDMxLjEgNDEgMjRxMC03LjEtNC45NS0xMi4wNVEzMS4xIDcgMjQgN3EtNy4xIDAtMTIuMDUgNC45NVE3IDE2LjkgNyAyNHEwIDcuMSA0Ljk1IDEyLjA1UTE2LjkgNDEgMjQgNDFaIi8+PC9zdmc+;" parent="1" vertex="1">
          <mxGeometry x="966" y="10" width="48" height="48" as="geometry" />
        </mxCell>
        <mxCell id="N7sEOZ7xVOHTOeoTomxm-118" value="" style="shape=image;verticalLabelPosition=bottom;labelBackgroundColor=default;verticalAlign=top;aspect=fixed;imageAspect=0;image=data:image/svg+xml,PHN2ZyB3aWR0aD0iNDgiIGhlaWdodD0iNDgiIHhtbG5zPSJodHRwOi8vd3d3LnczLm9yZy8yMDAwL3N2ZyIgdmlld0JveD0iMCAwIDQ4IDQ4Ij48cGF0aCBkPSJNMzEuMyAyMS4zNXExLjE1IDAgMS45MjUtLjguNzc1LS44Ljc3NS0xLjkgMC0xLjE1LS43NzUtMS45MjUtLjc3NS0uNzc1LTEuOTI1LS43NzUtMS4xIDAtMS45Ljc3NS0uOC43NzUtLjggMS45MjUgMCAxLjEuOCAxLjkuOC44IDEuOS44Wm0tMTQuNiAwcTEuMTUgMCAxLjkyNS0uOC43NzUtLjguNzc1LTEuOSAwLTEuMTUtLjc3NS0xLjkyNS0uNzc1LS43NzUtMS45MjUtLjc3NS0xLjEgMC0xLjkuNzc1LS44Ljc3NS0uOCAxLjkyNSAwIDEuMS44IDEuOS44LjggMS45LjhabTcuMyAxMy42cTMuMyAwIDYuMDc1LTEuNzc1UTMyLjg1IDMxLjQgMzQuMSAyOC4zNWgtMi42cS0xLjE1IDItMy4xNSAzLjA3NS0yIDEuMDc1LTQuMyAxLjA3NS0yLjM1IDAtNC4zNzUtMS4wNXQtMy4xMjUtMy4xSDEzLjlxMS4zIDMuMDUgNC4wNSA0LjgyNVEyMC43IDM0Ljk1IDI0IDM0Ljk1Wk0yNCA0NHEtNC4xNSAwLTcuOC0xLjU3NS0zLjY1LTEuNTc1LTYuMzUtNC4yNzUtMi43LTIuNy00LjI3NS02LjM1UTQgMjguMTUgNCAyNHQxLjU3NS03LjhRNy4xNSAxMi41NSA5Ljg1IDkuODVxMi43LTIuNyA2LjM1LTQuMjc1UTE5Ljg1IDQgMjQgNHQ3LjggMS41NzVxMy42NSAxLjU3NSA2LjM1IDQuMjc1IDIuNyAyLjcgNC4yNzUgNi4zNVE0NCAxOS44NSA0NCAyNHQtMS41NzUgNy44cS0xLjU3NSAzLjY1LTQuMjc1IDYuMzUtMi43IDIuNy02LjM1IDQuMjc1UTI4LjE1IDQ0IDI0IDQ0Wm0wLTIwWm0wIDE3cTcuMSAwIDEyLjA1LTQuOTVRNDEgMzEuMSA0MSAyNHEwLTcuMS00Ljk1LTEyLjA1UTMxLjEgNyAyNCA3cS03LjEgMC0xMi4wNSA0Ljk1UTcgMTYuOSA3IDI0cTAgNy4xIDQuOTUgMTIuMDVRMTYuOSA0MSAyNCA0MVoiLz48L3N2Zz4=;" parent="1" vertex="1">
          <mxGeometry x="918" y="10" width="48" height="48" as="geometry" />
        </mxCell>
        <mxCell id="N7sEOZ7xVOHTOeoTomxm-119" value="" style="shape=image;verticalLabelPosition=bottom;labelBackgroundColor=default;verticalAlign=top;aspect=fixed;imageAspect=0;image=data:image/svg+xml,PHN2ZyB3aWR0aD0iNDgiIGhlaWdodD0iNDgiIHhtbG5zPSJodHRwOi8vd3d3LnczLm9yZy8yMDAwL3N2ZyIgdmlld0JveD0iMCAwIDQ4IDQ4Ij48cGF0aCBkPSJNMzEuMyAyMS4zNXExLjE1IDAgMS45MjUtLjguNzc1LS44Ljc3NS0xLjkgMC0xLjE1LS43NzUtMS45MjUtLjc3NS0uNzc1LTEuOTI1LS43NzUtMS4xIDAtMS45Ljc3NS0uOC43NzUtLjggMS45MjUgMCAxLjEuOCAxLjkuOC44IDEuOS44Wm0tMTQuNiAwcTEuMTUgMCAxLjkyNS0uOC43NzUtLjguNzc1LTEuOSAwLTEuMTUtLjc3NS0xLjkyNS0uNzc1LS43NzUtMS45MjUtLjc3NS0xLjEgMC0xLjkuNzc1LS44Ljc3NS0uOCAxLjkyNSAwIDEuMS44IDEuOS44LjggMS45LjhabTcuMyA1LjhxLTMuMzUgMC02LjA3NSAxLjg3NVQxMy45IDM0aDIwLjJxLTEuMjUtMy4xNS00LTVUMjQgMjcuMTVaTTI0IDQ0cS00LjE1IDAtNy44LTEuNTc1LTMuNjUtMS41NzUtNi4zNS00LjI3NS0yLjctMi43LTQuMjc1LTYuMzVRNCAyOC4xNSA0IDI0dDEuNTc1LTcuOFE3LjE1IDEyLjU1IDkuODUgOS44NXEyLjctMi43IDYuMzUtNC4yNzVRMTkuODUgNCAyNCA0dDcuOCAxLjU3NXEzLjY1IDEuNTc1IDYuMzUgNC4yNzUgMi43IDIuNyA0LjI3NSA2LjM1UTQ0IDE5Ljg1IDQ0IDI0dC0xLjU3NSA3LjhxLTEuNTc1IDMuNjUtNC4yNzUgNi4zNS0yLjcgMi43LTYuMzUgNC4yNzVRMjguMTUgNDQgMjQgNDRabTAtMjBabTAgMTdxNy4xIDAgMTIuMDUtNC45NVE0MSAzMS4xIDQxIDI0cTAtNy4xLTQuOTUtMTIuMDVRMzEuMSA3IDI0IDdxLTcuMSAwLTEyLjA1IDQuOTVRNyAxNi45IDcgMjRxMCA3LjEgNC45NSAxMi4wNVExNi45IDQxIDI0IDQxWiIvPjwvc3ZnPg==;" parent="1" vertex="1">
          <mxGeometry x="870" y="10" width="48" height="48" as="geometry" />
        </mxCell>
        <mxCell id="N7sEOZ7xVOHTOeoTomxm-120" value="" style="shape=image;verticalLabelPosition=bottom;labelBackgroundColor=default;verticalAlign=top;aspect=fixed;imageAspect=0;image=data:image/svg+xml,PHN2ZyB3aWR0aD0iNDgiIGhlaWdodD0iNDgiIHhtbG5zPSJodHRwOi8vd3d3LnczLm9yZy8yMDAwL3N2ZyIgdmlld0JveD0iMCAwIDQ4IDQ4Ij48cGF0aCBkPSJNMjQgMzQuOTVxMy4zIDAgNi4wNzUtMS43NzVRMzIuODUgMzEuNCAzNC4xIDI4LjM1SDEzLjlxMS4zIDMuMDUgNC4wNSA0LjgyNVEyMC43IDM0Ljk1IDI0IDM0Ljk1Wm0tOC45LTEzLjYgMi4yNS0yLjI1IDIuMjUgMi4yNSAxLjgtMS44LTQuMDUtNC4wNS00LjA1IDQuMDVabTEzLjM1IDAgMi4yNS0yLjI1IDIuMjUgMi4yNSAxLjgtMS44LTQuMDUtNC4wNS00LjA1IDQuMDVaTTI0IDQ0cS00LjE1IDAtNy44LTEuNTc1LTMuNjUtMS41NzUtNi4zNS00LjI3NS0yLjctMi43LTQuMjc1LTYuMzVRNCAyOC4xNSA0IDI0dDEuNTc1LTcuOFE3LjE1IDEyLjU1IDkuODUgOS44NXEyLjctMi43IDYuMzUtNC4yNzVRMTkuODUgNCAyNCA0dDcuOCAxLjU3NXEzLjY1IDEuNTc1IDYuMzUgNC4yNzUgMi43IDIuNyA0LjI3NSA2LjM1UTQ0IDE5Ljg1IDQ0IDI0dC0xLjU3NSA3LjhxLTEuNTc1IDMuNjUtNC4yNzUgNi4zNS0yLjcgMi43LTYuMzUgNC4yNzVRMjguMTUgNDQgMjQgNDRabTAtMjBabTAgMTdxNy4xIDAgMTIuMDUtNC45NVE0MSAzMS4xIDQxIDI0cTAtNy4xLTQuOTUtMTIuMDVRMzEuMSA3IDI0IDdxLTcuMSAwLTEyLjA1IDQuOTVRNyAxNi45IDcgMjRxMCA3LjEgNC45NSAxMi4wNVExNi45IDQxIDI0IDQxWiIvPjwvc3ZnPg==;" parent="1" vertex="1">
          <mxGeometry x="1014" y="10" width="48" height="48" as="geometry" />
        </mxCell>
        <mxCell id="tpBl7wtEwe1w_ltXdNX6-39" value="" style="group" parent="1" vertex="1" connectable="0">
          <mxGeometry x="427" y="10" width="400" height="250" as="geometry" />
        </mxCell>
        <mxCell id="N7sEOZ7xVOHTOeoTomxm-104" value="" style="rounded=0;whiteSpace=wrap;html=1;fontSize=10;movable=1;resizable=1;rotatable=1;deletable=1;editable=1;connectable=1;container=0;" parent="tpBl7wtEwe1w_ltXdNX6-39" vertex="1">
          <mxGeometry width="400" height="250" as="geometry" />
        </mxCell>
        <mxCell id="N7sEOZ7xVOHTOeoTomxm-114" value="" style="endArrow=none;html=1;rounded=0;strokeWidth=1;fontSize=10;movable=1;resizable=1;rotatable=1;deletable=1;editable=1;connectable=1;" parent="tpBl7wtEwe1w_ltXdNX6-39" edge="1">
          <mxGeometry width="50" height="50" relative="1" as="geometry">
            <mxPoint y="19" as="sourcePoint" />
            <mxPoint x="400" y="19" as="targetPoint" />
          </mxGeometry>
        </mxCell>
        <mxCell id="N7sEOZ7xVOHTOeoTomxm-115" value="Deepfake detector" style="text;html=1;strokeColor=none;fillColor=none;align=center;verticalAlign=middle;whiteSpace=wrap;rounded=0;fontSize=10;movable=1;resizable=1;rotatable=1;deletable=1;editable=1;connectable=1;container=0;" parent="tpBl7wtEwe1w_ltXdNX6-39" vertex="1">
          <mxGeometry width="100" height="20" as="geometry" />
        </mxCell>
        <mxCell id="N7sEOZ7xVOHTOeoTomxm-116" value="&lt;div style=&quot;font-size: 10px;&quot; align=&quot;center&quot;&gt;&lt;font style=&quot;font-size: 10px;&quot;&gt;×&lt;/font&gt;&lt;/div&gt;" style="ellipse;whiteSpace=wrap;html=1;aspect=fixed;fontSize=10;align=center;verticalAlign=middle;spacing=0;movable=1;resizable=1;rotatable=1;deletable=1;editable=1;connectable=1;container=0;" parent="tpBl7wtEwe1w_ltXdNX6-39" vertex="1">
          <mxGeometry x="384" y="3" width="13" height="13" as="geometry" />
        </mxCell>
        <mxCell id="N7sEOZ7xVOHTOeoTomxm-121" value="" style="shape=image;verticalLabelPosition=bottom;labelBackgroundColor=default;verticalAlign=top;aspect=fixed;imageAspect=0;image=data:image/svg+xml,PHN2ZyB3aWR0aD0iNDgiIGhlaWdodD0iNDgiIHhtbG5zPSJodHRwOi8vd3d3LnczLm9yZy8yMDAwL3N2ZyIgdmlld0JveD0iMCAwIDQ4IDQ4Ij48cGF0aCBkPSJNMjQuMiAzNS42NXEuOCAwIDEuMzUtLjU1dC41NS0xLjM1cTAtLjgtLjU1LTEuMzV0LTEuMzUtLjU1cS0uOCAwLTEuMzUuNTV0LS41NSAxLjM1cTAgLjguNTUgMS4zNXQxLjM1LjU1Wm0tMS43NS03LjNoMi45NXEwLTEuMy4zMjUtMi4zNzVUMjcuNzUgMjMuNXExLjU1LTEuMyAyLjItMi41NS42NS0xLjI1LjY1LTIuNzUgMC0yLjY1LTEuNzI1LTQuMjV0LTQuNTc1LTEuNnEtMi40NSAwLTQuMzI1IDEuMjI1VDE3LjI1IDE2Ljk1bDIuNjUgMXEuNTUtMS40IDEuNjUtMi4xNzUgMS4xLS43NzUgMi42LS43NzUgMS43IDAgMi43NS45MjV0MS4wNSAyLjM3NXEwIDEuMS0uNjUgMi4wNzUtLjY1Ljk3NS0xLjkgMi4wMjUtMS41IDEuMy0yLjIyNSAyLjU3NS0uNzI1IDEuMjc1LS43MjUgMy4zNzVaTTI0IDQ0cS00LjEgMC03Ljc1LTEuNTc1LTMuNjUtMS41NzUtNi4zNzUtNC4zLTIuNzI1LTIuNzI1LTQuMy02LjM3NVE0IDI4LjEgNCAyNHEwLTQuMTUgMS41NzUtNy44IDEuNTc1LTMuNjUgNC4zLTYuMzUgMi43MjUtMi43IDYuMzc1LTQuMjc1UTE5LjkgNCAyNCA0cTQuMTUgMCA3LjggMS41NzUgMy42NSAxLjU3NSA2LjM1IDQuMjc1IDIuNyAyLjcgNC4yNzUgNi4zNVE0NCAxOS44NSA0NCAyNHEwIDQuMS0xLjU3NSA3Ljc1LTEuNTc1IDMuNjUtNC4yNzUgNi4zNzV0LTYuMzUgNC4zUTI4LjE1IDQ0IDI0IDQ0Wm0wLTNxNy4xIDAgMTIuMDUtNC45NzVRNDEgMzEuMDUgNDEgMjRxMC03LjEtNC45NS0xMi4wNVEzMS4xIDcgMjQgN3EtNy4wNSAwLTEyLjAyNSA0Ljk1UTcgMTYuOSA3IDI0cTAgNy4wNSA0Ljk3NSAxMi4wMjVRMTYuOTUgNDEgMjQgNDFabTAtMTdaIi8+PC9zdmc+;container=0;" parent="tpBl7wtEwe1w_ltXdNX6-39" vertex="1">
          <mxGeometry x="96" y="37.5" width="15" height="15" as="geometry" />
        </mxCell>
        <mxCell id="N7sEOZ7xVOHTOeoTomxm-124" value="Overall score:" style="text;html=1;strokeColor=none;fillColor=none;align=center;verticalAlign=middle;whiteSpace=wrap;rounded=0;fontSize=10;container=0;" parent="tpBl7wtEwe1w_ltXdNX6-39" vertex="1">
          <mxGeometry x="10" y="30" width="90" height="30" as="geometry" />
        </mxCell>
        <mxCell id="N7sEOZ7xVOHTOeoTomxm-125" value="&lt;font style=&quot;font-size: 20px;&quot;&gt;76 %&lt;/font&gt;" style="text;html=1;strokeColor=none;fillColor=none;align=center;verticalAlign=middle;whiteSpace=wrap;rounded=0;fontSize=10;container=0;" parent="tpBl7wtEwe1w_ltXdNX6-39" vertex="1">
          <mxGeometry x="90" y="69" width="60" height="30" as="geometry" />
        </mxCell>
        <mxCell id="tpBl7wtEwe1w_ltXdNX6-1" value="" style="shape=image;verticalLabelPosition=bottom;labelBackgroundColor=default;verticalAlign=top;aspect=fixed;imageAspect=0;image=data:image/svg+xml,PHN2ZyB3aWR0aD0iNDgiIGhlaWdodD0iNDgiIHhtbG5zPSJodHRwOi8vd3d3LnczLm9yZy8yMDAwL3N2ZyIgdmlld0JveD0iMCAwIDQ4IDQ4Ij48cGF0aCBkPSJNMTIgMjhoMjR2LTNIMTJabTAtNi41aDI0di0zSDEyWm0wLTYuNWgyNHYtM0gxMlptMzIgMjktOC04SDdxLTEuMTUgMC0yLjA3NS0uOTI1UTQgMzQuMTUgNCAzM1Y3cTAtMS4xNS45MjUtMi4wNzVRNS44NSA0IDcgNGgzNHExLjIgMCAyLjEuOTI1UTQ0IDUuODUgNDQgN1pNNyA3djI2aDMwLjI1TDQxIDM2Ljc1VjdIN1ptMCAwdjI5Ljc1VjdaIi8+PC9zdmc+;container=0;" parent="tpBl7wtEwe1w_ltXdNX6-39" vertex="1">
          <mxGeometry x="382" y="230" width="15" height="15" as="geometry" />
        </mxCell>
        <mxCell id="N7sEOZ7xVOHTOeoTomxm-122" value="" style="rounded=0;whiteSpace=wrap;html=1;fontSize=10;container=0;" parent="tpBl7wtEwe1w_ltXdNX6-39" vertex="1">
          <mxGeometry x="24" y="139" width="150" height="10" as="geometry" />
        </mxCell>
        <mxCell id="N7sEOZ7xVOHTOeoTomxm-129" value="&lt;font style=&quot;font-size: 10px;&quot;&gt;Detection method X&lt;/font&gt;" style="text;html=1;strokeColor=none;fillColor=none;align=left;verticalAlign=middle;whiteSpace=wrap;rounded=0;fontSize=20;container=0;" parent="tpBl7wtEwe1w_ltXdNX6-39" vertex="1">
          <mxGeometry x="22" y="115" width="140" height="20" as="geometry" />
        </mxCell>
        <mxCell id="N7sEOZ7xVOHTOeoTomxm-130" value="&lt;font style=&quot;font-size: 7px;&quot;&gt;0 %&lt;/font&gt;" style="text;html=1;strokeColor=none;fillColor=none;align=left;verticalAlign=middle;whiteSpace=wrap;rounded=0;fontSize=10;container=0;" parent="tpBl7wtEwe1w_ltXdNX6-39" vertex="1">
          <mxGeometry x="24" y="150" width="30" height="10" as="geometry" />
        </mxCell>
        <mxCell id="N7sEOZ7xVOHTOeoTomxm-131" value="&lt;font style=&quot;font-size: 7px;&quot;&gt;100 %&lt;/font&gt;" style="text;html=1;strokeColor=none;fillColor=none;align=right;verticalAlign=middle;whiteSpace=wrap;rounded=0;fontSize=10;container=0;" parent="tpBl7wtEwe1w_ltXdNX6-39" vertex="1">
          <mxGeometry x="144" y="150" width="30" height="10" as="geometry" />
        </mxCell>
        <mxCell id="N7sEOZ7xVOHTOeoTomxm-143" value="" style="shape=image;verticalLabelPosition=bottom;labelBackgroundColor=default;verticalAlign=top;aspect=fixed;imageAspect=0;image=data:image/svg+xml,PHN2ZyB3aWR0aD0iNDgiIGhlaWdodD0iNDgiIHhtbG5zPSJodHRwOi8vd3d3LnczLm9yZy8yMDAwL3N2ZyIgdmlld0JveD0iMCAwIDQ4IDQ4Ij48cGF0aCBkPSJNMjQuMiAzNS42NXEuOCAwIDEuMzUtLjU1dC41NS0xLjM1cTAtLjgtLjU1LTEuMzV0LTEuMzUtLjU1cS0uOCAwLTEuMzUuNTV0LS41NSAxLjM1cTAgLjguNTUgMS4zNXQxLjM1LjU1Wm0tMS43NS03LjNoMi45NXEwLTEuMy4zMjUtMi4zNzVUMjcuNzUgMjMuNXExLjU1LTEuMyAyLjItMi41NS42NS0xLjI1LjY1LTIuNzUgMC0yLjY1LTEuNzI1LTQuMjV0LTQuNTc1LTEuNnEtMi40NSAwLTQuMzI1IDEuMjI1VDE3LjI1IDE2Ljk1bDIuNjUgMXEuNTUtMS40IDEuNjUtMi4xNzUgMS4xLS43NzUgMi42LS43NzUgMS43IDAgMi43NS45MjV0MS4wNSAyLjM3NXEwIDEuMS0uNjUgMi4wNzUtLjY1Ljk3NS0xLjkgMi4wMjUtMS41IDEuMy0yLjIyNSAyLjU3NS0uNzI1IDEuMjc1LS43MjUgMy4zNzVaTTI0IDQ0cS00LjEgMC03Ljc1LTEuNTc1LTMuNjUtMS41NzUtNi4zNzUtNC4zLTIuNzI1LTIuNzI1LTQuMy02LjM3NVE0IDI4LjEgNCAyNHEwLTQuMTUgMS41NzUtNy44IDEuNTc1LTMuNjUgNC4zLTYuMzUgMi43MjUtMi43IDYuMzc1LTQuMjc1UTE5LjkgNCAyNCA0cTQuMTUgMCA3LjggMS41NzUgMy42NSAxLjU3NSA2LjM1IDQuMjc1IDIuNyAyLjcgNC4yNzUgNi4zNVE0NCAxOS44NSA0NCAyNHEwIDQuMS0xLjU3NSA3Ljc1LTEuNTc1IDMuNjUtNC4yNzUgNi4zNzV0LTYuMzUgNC4zUTI4LjE1IDQ0IDI0IDQ0Wm0wLTNxNy4xIDAgMTIuMDUtNC45NzVRNDEgMzEuMDUgNDEgMjRxMC03LjEtNC45NS0xMi4wNVEzMS4xIDcgMjQgN3EtNy4wNSAwLTEyLjAyNSA0Ljk1UTcgMTYuOSA3IDI0cTAgNy4wNSA0Ljk3NSAxMi4wMjVRMTYuOTUgNDEgMjQgNDFabTAtMTdaIi8+PC9zdmc+;container=0;" parent="tpBl7wtEwe1w_ltXdNX6-39" vertex="1">
          <mxGeometry x="159" y="122" width="15" height="15" as="geometry" />
        </mxCell>
        <mxCell id="N7sEOZ7xVOHTOeoTomxm-199" value="" style="rounded=0;whiteSpace=wrap;html=1;fontSize=6;fillColor=#BABABA;fontColor=#333333;strokeColor=#000000;container=0;" parent="tpBl7wtEwe1w_ltXdNX6-39" vertex="1">
          <mxGeometry x="24" y="139" width="90" height="10" as="geometry" />
        </mxCell>
        <mxCell id="N7sEOZ7xVOHTOeoTomxm-200" value="&lt;font style=&quot;font-size: 7px;&quot;&gt;60 %&lt;/font&gt;" style="text;html=1;strokeColor=none;fillColor=none;align=center;verticalAlign=middle;whiteSpace=wrap;rounded=0;fontSize=6;container=0;" parent="tpBl7wtEwe1w_ltXdNX6-39" vertex="1">
          <mxGeometry x="103" y="151" width="30" height="10" as="geometry" />
        </mxCell>
        <mxCell id="N7sEOZ7xVOHTOeoTomxm-205" value="" style="rounded=0;whiteSpace=wrap;html=1;fontSize=10;container=0;" parent="tpBl7wtEwe1w_ltXdNX6-39" vertex="1">
          <mxGeometry x="210" y="139" width="150" height="10" as="geometry" />
        </mxCell>
        <mxCell id="N7sEOZ7xVOHTOeoTomxm-206" value="&lt;font style=&quot;font-size: 10px;&quot;&gt;Detection method Y&lt;br&gt;&lt;/font&gt;" style="text;html=1;strokeColor=none;fillColor=none;align=left;verticalAlign=middle;whiteSpace=wrap;rounded=0;fontSize=20;container=0;" parent="tpBl7wtEwe1w_ltXdNX6-39" vertex="1">
          <mxGeometry x="208" y="115" width="140" height="20" as="geometry" />
        </mxCell>
        <mxCell id="N7sEOZ7xVOHTOeoTomxm-207" value="&lt;font style=&quot;font-size: 7px;&quot;&gt;0 %&lt;/font&gt;" style="text;html=1;strokeColor=none;fillColor=none;align=left;verticalAlign=middle;whiteSpace=wrap;rounded=0;fontSize=10;container=0;" parent="tpBl7wtEwe1w_ltXdNX6-39" vertex="1">
          <mxGeometry x="210" y="150" width="30" height="10" as="geometry" />
        </mxCell>
        <mxCell id="N7sEOZ7xVOHTOeoTomxm-208" value="&lt;font style=&quot;font-size: 7px;&quot;&gt;100 %&lt;/font&gt;" style="text;html=1;strokeColor=none;fillColor=none;align=right;verticalAlign=middle;whiteSpace=wrap;rounded=0;fontSize=10;container=0;" parent="tpBl7wtEwe1w_ltXdNX6-39" vertex="1">
          <mxGeometry x="330" y="150" width="30" height="10" as="geometry" />
        </mxCell>
        <mxCell id="N7sEOZ7xVOHTOeoTomxm-209" value="" style="shape=image;verticalLabelPosition=bottom;labelBackgroundColor=default;verticalAlign=top;aspect=fixed;imageAspect=0;image=data:image/svg+xml,PHN2ZyB3aWR0aD0iNDgiIGhlaWdodD0iNDgiIHhtbG5zPSJodHRwOi8vd3d3LnczLm9yZy8yMDAwL3N2ZyIgdmlld0JveD0iMCAwIDQ4IDQ4Ij48cGF0aCBkPSJNMjQuMiAzNS42NXEuOCAwIDEuMzUtLjU1dC41NS0xLjM1cTAtLjgtLjU1LTEuMzV0LTEuMzUtLjU1cS0uOCAwLTEuMzUuNTV0LS41NSAxLjM1cTAgLjguNTUgMS4zNXQxLjM1LjU1Wm0tMS43NS03LjNoMi45NXEwLTEuMy4zMjUtMi4zNzVUMjcuNzUgMjMuNXExLjU1LTEuMyAyLjItMi41NS42NS0xLjI1LjY1LTIuNzUgMC0yLjY1LTEuNzI1LTQuMjV0LTQuNTc1LTEuNnEtMi40NSAwLTQuMzI1IDEuMjI1VDE3LjI1IDE2Ljk1bDIuNjUgMXEuNTUtMS40IDEuNjUtMi4xNzUgMS4xLS43NzUgMi42LS43NzUgMS43IDAgMi43NS45MjV0MS4wNSAyLjM3NXEwIDEuMS0uNjUgMi4wNzUtLjY1Ljk3NS0xLjkgMi4wMjUtMS41IDEuMy0yLjIyNSAyLjU3NS0uNzI1IDEuMjc1LS43MjUgMy4zNzVaTTI0IDQ0cS00LjEgMC03Ljc1LTEuNTc1LTMuNjUtMS41NzUtNi4zNzUtNC4zLTIuNzI1LTIuNzI1LTQuMy02LjM3NVE0IDI4LjEgNCAyNHEwLTQuMTUgMS41NzUtNy44IDEuNTc1LTMuNjUgNC4zLTYuMzUgMi43MjUtMi43IDYuMzc1LTQuMjc1UTE5LjkgNCAyNCA0cTQuMTUgMCA3LjggMS41NzUgMy42NSAxLjU3NSA2LjM1IDQuMjc1IDIuNyAyLjcgNC4yNzUgNi4zNVE0NCAxOS44NSA0NCAyNHEwIDQuMS0xLjU3NSA3Ljc1LTEuNTc1IDMuNjUtNC4yNzUgNi4zNzV0LTYuMzUgNC4zUTI4LjE1IDQ0IDI0IDQ0Wm0wLTNxNy4xIDAgMTIuMDUtNC45NzVRNDEgMzEuMDUgNDEgMjRxMC03LjEtNC45NS0xMi4wNVEzMS4xIDcgMjQgN3EtNy4wNSAwLTEyLjAyNSA0Ljk1UTcgMTYuOSA3IDI0cTAgNy4wNSA0Ljk3NSAxMi4wMjVRMTYuOTUgNDEgMjQgNDFabTAtMTdaIi8+PC9zdmc+;container=0;" parent="tpBl7wtEwe1w_ltXdNX6-39" vertex="1">
          <mxGeometry x="345" y="122" width="15" height="15" as="geometry" />
        </mxCell>
        <mxCell id="N7sEOZ7xVOHTOeoTomxm-210" value="" style="rounded=0;whiteSpace=wrap;html=1;fontSize=6;fillColor=#BABABA;fontColor=#333333;strokeColor=#000000;container=0;" parent="tpBl7wtEwe1w_ltXdNX6-39" vertex="1">
          <mxGeometry x="210" y="139" width="115" height="10" as="geometry" />
        </mxCell>
        <mxCell id="N7sEOZ7xVOHTOeoTomxm-211" value="&lt;font style=&quot;font-size: 7px;&quot;&gt;76 %&lt;/font&gt;" style="text;html=1;strokeColor=none;fillColor=none;align=center;verticalAlign=middle;whiteSpace=wrap;rounded=0;fontSize=6;container=0;" parent="tpBl7wtEwe1w_ltXdNX6-39" vertex="1">
          <mxGeometry x="311" y="151" width="30" height="10" as="geometry" />
        </mxCell>
        <mxCell id="N7sEOZ7xVOHTOeoTomxm-213" value="" style="rounded=0;whiteSpace=wrap;html=1;fontSize=10;container=0;" parent="tpBl7wtEwe1w_ltXdNX6-39" vertex="1">
          <mxGeometry x="24" y="200" width="150" height="10" as="geometry" />
        </mxCell>
        <mxCell id="N7sEOZ7xVOHTOeoTomxm-214" value="&lt;font style=&quot;font-size: 10px;&quot;&gt;Detection method Z&lt;br&gt;&lt;/font&gt;" style="text;html=1;strokeColor=none;fillColor=none;align=left;verticalAlign=middle;whiteSpace=wrap;rounded=0;fontSize=20;container=0;" parent="tpBl7wtEwe1w_ltXdNX6-39" vertex="1">
          <mxGeometry x="22" y="176" width="140" height="20" as="geometry" />
        </mxCell>
        <mxCell id="N7sEOZ7xVOHTOeoTomxm-215" value="&lt;font style=&quot;font-size: 7px;&quot;&gt;0 %&lt;/font&gt;" style="text;html=1;strokeColor=none;fillColor=none;align=left;verticalAlign=middle;whiteSpace=wrap;rounded=0;fontSize=10;container=0;" parent="tpBl7wtEwe1w_ltXdNX6-39" vertex="1">
          <mxGeometry x="24" y="211" width="30" height="10" as="geometry" />
        </mxCell>
        <mxCell id="N7sEOZ7xVOHTOeoTomxm-217" value="" style="shape=image;verticalLabelPosition=bottom;labelBackgroundColor=default;verticalAlign=top;aspect=fixed;imageAspect=0;image=data:image/svg+xml,PHN2ZyB3aWR0aD0iNDgiIGhlaWdodD0iNDgiIHhtbG5zPSJodHRwOi8vd3d3LnczLm9yZy8yMDAwL3N2ZyIgdmlld0JveD0iMCAwIDQ4IDQ4Ij48cGF0aCBkPSJNMjQuMiAzNS42NXEuOCAwIDEuMzUtLjU1dC41NS0xLjM1cTAtLjgtLjU1LTEuMzV0LTEuMzUtLjU1cS0uOCAwLTEuMzUuNTV0LS41NSAxLjM1cTAgLjguNTUgMS4zNXQxLjM1LjU1Wm0tMS43NS03LjNoMi45NXEwLTEuMy4zMjUtMi4zNzVUMjcuNzUgMjMuNXExLjU1LTEuMyAyLjItMi41NS42NS0xLjI1LjY1LTIuNzUgMC0yLjY1LTEuNzI1LTQuMjV0LTQuNTc1LTEuNnEtMi40NSAwLTQuMzI1IDEuMjI1VDE3LjI1IDE2Ljk1bDIuNjUgMXEuNTUtMS40IDEuNjUtMi4xNzUgMS4xLS43NzUgMi42LS43NzUgMS43IDAgMi43NS45MjV0MS4wNSAyLjM3NXEwIDEuMS0uNjUgMi4wNzUtLjY1Ljk3NS0xLjkgMi4wMjUtMS41IDEuMy0yLjIyNSAyLjU3NS0uNzI1IDEuMjc1LS43MjUgMy4zNzVaTTI0IDQ0cS00LjEgMC03Ljc1LTEuNTc1LTMuNjUtMS41NzUtNi4zNzUtNC4zLTIuNzI1LTIuNzI1LTQuMy02LjM3NVE0IDI4LjEgNCAyNHEwLTQuMTUgMS41NzUtNy44IDEuNTc1LTMuNjUgNC4zLTYuMzUgMi43MjUtMi43IDYuMzc1LTQuMjc1UTE5LjkgNCAyNCA0cTQuMTUgMCA3LjggMS41NzUgMy42NSAxLjU3NSA2LjM1IDQuMjc1IDIuNyAyLjcgNC4yNzUgNi4zNVE0NCAxOS44NSA0NCAyNHEwIDQuMS0xLjU3NSA3Ljc1LTEuNTc1IDMuNjUtNC4yNzUgNi4zNzV0LTYuMzUgNC4zUTI4LjE1IDQ0IDI0IDQ0Wm0wLTNxNy4xIDAgMTIuMDUtNC45NzVRNDEgMzEuMDUgNDEgMjRxMC03LjEtNC45NS0xMi4wNVEzMS4xIDcgMjQgN3EtNy4wNSAwLTEyLjAyNSA0Ljk1UTcgMTYuOSA3IDI0cTAgNy4wNSA0Ljk3NSAxMi4wMjVRMTYuOTUgNDEgMjQgNDFabTAtMTdaIi8+PC9zdmc+;container=0;" parent="tpBl7wtEwe1w_ltXdNX6-39" vertex="1">
          <mxGeometry x="159" y="183" width="15" height="15" as="geometry" />
        </mxCell>
        <mxCell id="N7sEOZ7xVOHTOeoTomxm-218" value="" style="rounded=0;whiteSpace=wrap;html=1;fontSize=6;fillColor=#BABABA;fontColor=#333333;strokeColor=#000000;container=0;" parent="tpBl7wtEwe1w_ltXdNX6-39" vertex="1">
          <mxGeometry x="24" y="200" width="147" height="10" as="geometry" />
        </mxCell>
        <mxCell id="N7sEOZ7xVOHTOeoTomxm-219" value="&lt;div align=&quot;right&quot;&gt;&lt;font style=&quot;font-size: 7px;&quot;&gt;98 %&lt;/font&gt;&lt;/div&gt;" style="text;html=1;strokeColor=none;fillColor=none;align=right;verticalAlign=middle;whiteSpace=wrap;rounded=0;fontSize=6;container=0;" parent="tpBl7wtEwe1w_ltXdNX6-39" vertex="1">
          <mxGeometry x="144" y="212" width="30" height="10" as="geometry" />
        </mxCell>
        <mxCell id="6HNKOOufk_pdYNekoqKv-1" value="" style="shape=image;verticalLabelPosition=bottom;labelBackgroundColor=default;verticalAlign=top;aspect=fixed;imageAspect=0;image=data:image/svg+xml,PHN2ZyB3aWR0aD0iNDgiIGhlaWdodD0iNDgiIHhtbG5zPSJodHRwOi8vd3d3LnczLm9yZy8yMDAwL3N2ZyIgdmlld0JveD0iMCAwIDQ4IDQ4Ij48cGF0aCBkPSJNMzEuMyAyMS4zNXExLjE1IDAgMS45MjUtLjguNzc1LS44Ljc3NS0xLjkgMC0xLjE1LS43NzUtMS45MjUtLjc3NS0uNzc1LTEuOTI1LS43NzUtMS4xIDAtMS45Ljc3NS0uOC43NzUtLjggMS45MjUgMCAxLjEuOCAxLjkuOC44IDEuOS44Wm0tMTQuNiAwcTEuMTUgMCAxLjkyNS0uOC43NzUtLjguNzc1LTEuOSAwLTEuMTUtLjc3NS0xLjkyNS0uNzc1LS43NzUtMS45MjUtLjc3NS0xLjEgMC0xLjkuNzc1LS44Ljc3NS0uOCAxLjkyNSAwIDEuMS44IDEuOS44LjggMS45LjhabTcuMyA1LjhxLTMuMzUgMC02LjA3NSAxLjg3NVQxMy45IDM0aDIwLjJxLTEuMjUtMy4xNS00LTVUMjQgMjcuMTVaTTI0IDQ0cS00LjE1IDAtNy44LTEuNTc1LTMuNjUtMS41NzUtNi4zNS00LjI3NS0yLjctMi43LTQuMjc1LTYuMzVRNCAyOC4xNSA0IDI0dDEuNTc1LTcuOFE3LjE1IDEyLjU1IDkuODUgOS44NXEyLjctMi43IDYuMzUtNC4yNzVRMTkuODUgNCAyNCA0dDcuOCAxLjU3NXEzLjY1IDEuNTc1IDYuMzUgNC4yNzUgMi43IDIuNyA0LjI3NSA2LjM1UTQ0IDE5Ljg1IDQ0IDI0dC0xLjU3NSA3LjhxLTEuNTc1IDMuNjUtNC4yNzUgNi4zNS0yLjcgMi43LTYuMzUgNC4yNzVRMjguMTUgNDQgMjQgNDRabTAtMjBabTAgMTdxNy4xIDAgMTIuMDUtNC45NVE0MSAzMS4xIDQxIDI0cTAtNy4xLTQuOTUtMTIuMDVRMzEuMSA3IDI0IDdxLTcuMSAwLTEyLjA1IDQuOTVRNyAxNi45IDcgMjRxMCA3LjEgNC45NSAxMi4wNVExNi45IDQxIDI0IDQxWiIvPjwvc3ZnPg==;" vertex="1" parent="tpBl7wtEwe1w_ltXdNX6-39">
          <mxGeometry x="31" y="60" width="48" height="48" as="geometry" />
        </mxCell>
        <mxCell id="tpBl7wtEwe1w_ltXdNX6-40" value="" style="group" parent="1" vertex="1" connectable="0">
          <mxGeometry x="427" y="280" width="400" height="250" as="geometry" />
        </mxCell>
        <mxCell id="tpBl7wtEwe1w_ltXdNX6-41" value="" style="rounded=0;whiteSpace=wrap;html=1;fontSize=10;movable=1;resizable=1;rotatable=1;deletable=1;editable=1;connectable=1;container=0;" parent="tpBl7wtEwe1w_ltXdNX6-40" vertex="1">
          <mxGeometry width="400" height="250" as="geometry" />
        </mxCell>
        <mxCell id="tpBl7wtEwe1w_ltXdNX6-42" value="" style="endArrow=none;html=1;rounded=0;strokeWidth=1;fontSize=10;movable=1;resizable=1;rotatable=1;deletable=1;editable=1;connectable=1;" parent="tpBl7wtEwe1w_ltXdNX6-40" edge="1">
          <mxGeometry width="50" height="50" relative="1" as="geometry">
            <mxPoint y="19" as="sourcePoint" />
            <mxPoint x="400" y="19" as="targetPoint" />
          </mxGeometry>
        </mxCell>
        <mxCell id="tpBl7wtEwe1w_ltXdNX6-43" value="Deepfake detector" style="text;html=1;strokeColor=none;fillColor=none;align=center;verticalAlign=middle;whiteSpace=wrap;rounded=0;fontSize=10;movable=1;resizable=1;rotatable=1;deletable=1;editable=1;connectable=1;container=0;" parent="tpBl7wtEwe1w_ltXdNX6-40" vertex="1">
          <mxGeometry width="100" height="20" as="geometry" />
        </mxCell>
        <mxCell id="tpBl7wtEwe1w_ltXdNX6-44" value="&lt;div style=&quot;font-size: 10px;&quot; align=&quot;center&quot;&gt;&lt;font style=&quot;font-size: 10px;&quot;&gt;×&lt;/font&gt;&lt;/div&gt;" style="ellipse;whiteSpace=wrap;html=1;aspect=fixed;fontSize=10;align=center;verticalAlign=middle;spacing=0;movable=1;resizable=1;rotatable=1;deletable=1;editable=1;connectable=1;container=0;" parent="tpBl7wtEwe1w_ltXdNX6-40" vertex="1">
          <mxGeometry x="384" y="3" width="13" height="13" as="geometry" />
        </mxCell>
        <mxCell id="tpBl7wtEwe1w_ltXdNX6-45" value="" style="shape=image;verticalLabelPosition=bottom;labelBackgroundColor=default;verticalAlign=top;aspect=fixed;imageAspect=0;image=data:image/svg+xml,PHN2ZyB3aWR0aD0iNDgiIGhlaWdodD0iNDgiIHhtbG5zPSJodHRwOi8vd3d3LnczLm9yZy8yMDAwL3N2ZyIgdmlld0JveD0iMCAwIDQ4IDQ4Ij48cGF0aCBkPSJNMjQuMiAzNS42NXEuOCAwIDEuMzUtLjU1dC41NS0xLjM1cTAtLjgtLjU1LTEuMzV0LTEuMzUtLjU1cS0uOCAwLTEuMzUuNTV0LS41NSAxLjM1cTAgLjguNTUgMS4zNXQxLjM1LjU1Wm0tMS43NS03LjNoMi45NXEwLTEuMy4zMjUtMi4zNzVUMjcuNzUgMjMuNXExLjU1LTEuMyAyLjItMi41NS42NS0xLjI1LjY1LTIuNzUgMC0yLjY1LTEuNzI1LTQuMjV0LTQuNTc1LTEuNnEtMi40NSAwLTQuMzI1IDEuMjI1VDE3LjI1IDE2Ljk1bDIuNjUgMXEuNTUtMS40IDEuNjUtMi4xNzUgMS4xLS43NzUgMi42LS43NzUgMS43IDAgMi43NS45MjV0MS4wNSAyLjM3NXEwIDEuMS0uNjUgMi4wNzUtLjY1Ljk3NS0xLjkgMi4wMjUtMS41IDEuMy0yLjIyNSAyLjU3NS0uNzI1IDEuMjc1LS43MjUgMy4zNzVaTTI0IDQ0cS00LjEgMC03Ljc1LTEuNTc1LTMuNjUtMS41NzUtNi4zNzUtNC4zLTIuNzI1LTIuNzI1LTQuMy02LjM3NVE0IDI4LjEgNCAyNHEwLTQuMTUgMS41NzUtNy44IDEuNTc1LTMuNjUgNC4zLTYuMzUgMi43MjUtMi43IDYuMzc1LTQuMjc1UTE5LjkgNCAyNCA0cTQuMTUgMCA3LjggMS41NzUgMy42NSAxLjU3NSA2LjM1IDQuMjc1IDIuNyAyLjcgNC4yNzUgNi4zNVE0NCAxOS44NSA0NCAyNHEwIDQuMS0xLjU3NSA3Ljc1LTEuNTc1IDMuNjUtNC4yNzUgNi4zNzV0LTYuMzUgNC4zUTI4LjE1IDQ0IDI0IDQ0Wm0wLTNxNy4xIDAgMTIuMDUtNC45NzVRNDEgMzEuMDUgNDEgMjRxMC03LjEtNC45NS0xMi4wNVEzMS4xIDcgMjQgN3EtNy4wNSAwLTEyLjAyNSA0Ljk1UTcgMTYuOSA3IDI0cTAgNy4wNSA0Ljk3NSAxMi4wMjVRMTYuOTUgNDEgMjQgNDFabTAtMTdaIi8+PC9zdmc+;container=0;" parent="tpBl7wtEwe1w_ltXdNX6-40" vertex="1">
          <mxGeometry x="96" y="37.5" width="15" height="15" as="geometry" />
        </mxCell>
        <mxCell id="tpBl7wtEwe1w_ltXdNX6-46" value="" style="shape=image;verticalLabelPosition=bottom;labelBackgroundColor=default;verticalAlign=top;aspect=fixed;imageAspect=0;image=data:image/svg+xml,PHN2ZyB3aWR0aD0iNDgiIGhlaWdodD0iNDgiIHhtbG5zPSJodHRwOi8vd3d3LnczLm9yZy8yMDAwL3N2ZyIgdmlld0JveD0iMCAwIDQ4IDQ4Ij48cGF0aCBkPSJNMzEuMyAyMS4zNXExLjE1IDAgMS45MjUtLjguNzc1LS44Ljc3NS0xLjkgMC0xLjE1LS43NzUtMS45MjUtLjc3NS0uNzc1LTEuOTI1LS43NzUtMS4xIDAtMS45Ljc3NS0uOC43NzUtLjggMS45MjUgMCAxLjEuOCAxLjkuOC44IDEuOS44Wm0tMTQuNiAwcTEuMTUgMCAxLjkyNS0uOC43NzUtLjguNzc1LTEuOSAwLTEuMTUtLjc3NS0xLjkyNS0uNzc1LS43NzUtMS45MjUtLjc3NS0xLjEgMC0xLjkuNzc1LS44Ljc3NS0uOCAxLjkyNSAwIDEuMS44IDEuOS44LjggMS45LjhabTcuMyAxMy42cTMuMyAwIDYuMDc1LTEuNzc1UTMyLjg1IDMxLjQgMzQuMSAyOC4zNUgxMy45cTEuMyAzLjA1IDQuMDUgNC44MjVRMjAuNyAzNC45NSAyNCAzNC45NVpNMjQgNDRxLTQuMTUgMC03LjgtMS41NzUtMy42NS0xLjU3NS02LjM1LTQuMjc1LTIuNy0yLjctNC4yNzUtNi4zNVE0IDI4LjE1IDQgMjR0MS41NzUtNy44UTcuMTUgMTIuNTUgOS44NSA5Ljg1cTIuNy0yLjcgNi4zNS00LjI3NVExOS44NSA0IDI0IDR0Ny44IDEuNTc1cTMuNjUgMS41NzUgNi4zNSA0LjI3NSAyLjcgMi43IDQuMjc1IDYuMzVRNDQgMTkuODUgNDQgMjR0LTEuNTc1IDcuOHEtMS41NzUgMy42NS00LjI3NSA2LjM1LTIuNyAyLjctNi4zNSA0LjI3NVEyOC4xNSA0NCAyNCA0NFptMC0yMFptMCAxN3E3LjEgMCAxMi4wNS00Ljk1UTQxIDMxLjEgNDEgMjRxMC03LjEtNC45NS0xMi4wNVEzMS4xIDcgMjQgN3EtNy4xIDAtMTIuMDUgNC45NVE3IDE2LjkgNyAyNHEwIDcuMSA0Ljk1IDEyLjA1UTE2LjkgNDEgMjQgNDFaIi8+PC9zdmc+;container=0;" parent="tpBl7wtEwe1w_ltXdNX6-40" vertex="1">
          <mxGeometry x="24" y="60" width="48" height="48" as="geometry" />
        </mxCell>
        <mxCell id="tpBl7wtEwe1w_ltXdNX6-47" value="Overall score:" style="text;html=1;strokeColor=none;fillColor=none;align=center;verticalAlign=middle;whiteSpace=wrap;rounded=0;fontSize=10;container=0;" parent="tpBl7wtEwe1w_ltXdNX6-40" vertex="1">
          <mxGeometry x="10" y="30" width="90" height="30" as="geometry" />
        </mxCell>
        <mxCell id="tpBl7wtEwe1w_ltXdNX6-48" value="&lt;font style=&quot;font-size: 20px;&quot;&gt;76 %&lt;/font&gt;" style="text;html=1;strokeColor=none;fillColor=none;align=center;verticalAlign=middle;whiteSpace=wrap;rounded=0;fontSize=10;container=0;" parent="tpBl7wtEwe1w_ltXdNX6-40" vertex="1">
          <mxGeometry x="90" y="69" width="60" height="30" as="geometry" />
        </mxCell>
        <mxCell id="tpBl7wtEwe1w_ltXdNX6-49" value="" style="shape=image;verticalLabelPosition=bottom;labelBackgroundColor=default;verticalAlign=top;aspect=fixed;imageAspect=0;image=data:image/svg+xml,PHN2ZyB3aWR0aD0iNDgiIGhlaWdodD0iNDgiIHhtbG5zPSJodHRwOi8vd3d3LnczLm9yZy8yMDAwL3N2ZyIgdmlld0JveD0iMCAwIDQ4IDQ4Ij48cGF0aCBkPSJNMTIgMjhoMjR2LTNIMTJabTAtNi41aDI0di0zSDEyWm0wLTYuNWgyNHYtM0gxMlptMzIgMjktOC04SDdxLTEuMTUgMC0yLjA3NS0uOTI1UTQgMzQuMTUgNCAzM1Y3cTAtMS4xNS45MjUtMi4wNzVRNS44NSA0IDcgNGgzNHExLjIgMCAyLjEuOTI1UTQ0IDUuODUgNDQgN1pNNyA3djI2aDMwLjI1TDQxIDM2Ljc1VjdIN1ptMCAwdjI5Ljc1VjdaIi8+PC9zdmc+;container=0;" parent="tpBl7wtEwe1w_ltXdNX6-40" vertex="1">
          <mxGeometry x="382" y="230" width="15" height="15" as="geometry" />
        </mxCell>
        <mxCell id="tpBl7wtEwe1w_ltXdNX6-50" value="" style="rounded=0;whiteSpace=wrap;html=1;fontSize=10;container=0;" parent="tpBl7wtEwe1w_ltXdNX6-40" vertex="1">
          <mxGeometry x="24" y="139" width="150" height="10" as="geometry" />
        </mxCell>
        <mxCell id="tpBl7wtEwe1w_ltXdNX6-51" value="&lt;font style=&quot;font-size: 10px;&quot;&gt;Detection method X&lt;/font&gt;" style="text;html=1;strokeColor=none;fillColor=none;align=left;verticalAlign=middle;whiteSpace=wrap;rounded=0;fontSize=20;container=0;" parent="tpBl7wtEwe1w_ltXdNX6-40" vertex="1">
          <mxGeometry x="22" y="115" width="140" height="20" as="geometry" />
        </mxCell>
        <mxCell id="tpBl7wtEwe1w_ltXdNX6-52" value="&lt;font style=&quot;font-size: 7px;&quot;&gt;0 %&lt;/font&gt;" style="text;html=1;strokeColor=none;fillColor=none;align=left;verticalAlign=middle;whiteSpace=wrap;rounded=0;fontSize=10;container=0;" parent="tpBl7wtEwe1w_ltXdNX6-40" vertex="1">
          <mxGeometry x="24" y="150" width="30" height="10" as="geometry" />
        </mxCell>
        <mxCell id="tpBl7wtEwe1w_ltXdNX6-53" value="&lt;font style=&quot;font-size: 7px;&quot;&gt;100 %&lt;/font&gt;" style="text;html=1;strokeColor=none;fillColor=none;align=right;verticalAlign=middle;whiteSpace=wrap;rounded=0;fontSize=10;container=0;" parent="tpBl7wtEwe1w_ltXdNX6-40" vertex="1">
          <mxGeometry x="144" y="150" width="30" height="10" as="geometry" />
        </mxCell>
        <mxCell id="tpBl7wtEwe1w_ltXdNX6-54" value="" style="shape=image;verticalLabelPosition=bottom;labelBackgroundColor=default;verticalAlign=top;aspect=fixed;imageAspect=0;image=data:image/svg+xml,PHN2ZyB3aWR0aD0iNDgiIGhlaWdodD0iNDgiIHhtbG5zPSJodHRwOi8vd3d3LnczLm9yZy8yMDAwL3N2ZyIgdmlld0JveD0iMCAwIDQ4IDQ4Ij48cGF0aCBkPSJNMjQuMiAzNS42NXEuOCAwIDEuMzUtLjU1dC41NS0xLjM1cTAtLjgtLjU1LTEuMzV0LTEuMzUtLjU1cS0uOCAwLTEuMzUuNTV0LS41NSAxLjM1cTAgLjguNTUgMS4zNXQxLjM1LjU1Wm0tMS43NS03LjNoMi45NXEwLTEuMy4zMjUtMi4zNzVUMjcuNzUgMjMuNXExLjU1LTEuMyAyLjItMi41NS42NS0xLjI1LjY1LTIuNzUgMC0yLjY1LTEuNzI1LTQuMjV0LTQuNTc1LTEuNnEtMi40NSAwLTQuMzI1IDEuMjI1VDE3LjI1IDE2Ljk1bDIuNjUgMXEuNTUtMS40IDEuNjUtMi4xNzUgMS4xLS43NzUgMi42LS43NzUgMS43IDAgMi43NS45MjV0MS4wNSAyLjM3NXEwIDEuMS0uNjUgMi4wNzUtLjY1Ljk3NS0xLjkgMi4wMjUtMS41IDEuMy0yLjIyNSAyLjU3NS0uNzI1IDEuMjc1LS43MjUgMy4zNzVaTTI0IDQ0cS00LjEgMC03Ljc1LTEuNTc1LTMuNjUtMS41NzUtNi4zNzUtNC4zLTIuNzI1LTIuNzI1LTQuMy02LjM3NVE0IDI4LjEgNCAyNHEwLTQuMTUgMS41NzUtNy44IDEuNTc1LTMuNjUgNC4zLTYuMzUgMi43MjUtMi43IDYuMzc1LTQuMjc1UTE5LjkgNCAyNCA0cTQuMTUgMCA3LjggMS41NzUgMy42NSAxLjU3NSA2LjM1IDQuMjc1IDIuNyAyLjcgNC4yNzUgNi4zNVE0NCAxOS44NSA0NCAyNHEwIDQuMS0xLjU3NSA3Ljc1LTEuNTc1IDMuNjUtNC4yNzUgNi4zNzV0LTYuMzUgNC4zUTI4LjE1IDQ0IDI0IDQ0Wm0wLTNxNy4xIDAgMTIuMDUtNC45NzVRNDEgMzEuMDUgNDEgMjRxMC03LjEtNC45NS0xMi4wNVEzMS4xIDcgMjQgN3EtNy4wNSAwLTEyLjAyNSA0Ljk1UTcgMTYuOSA3IDI0cTAgNy4wNSA0Ljk3NSAxMi4wMjVRMTYuOTUgNDEgMjQgNDFabTAtMTdaIi8+PC9zdmc+;container=0;" parent="tpBl7wtEwe1w_ltXdNX6-40" vertex="1">
          <mxGeometry x="159" y="122" width="15" height="15" as="geometry" />
        </mxCell>
        <mxCell id="tpBl7wtEwe1w_ltXdNX6-55" value="" style="rounded=0;whiteSpace=wrap;html=1;fontSize=6;fillColor=#BABABA;fontColor=#333333;strokeColor=#000000;container=0;" parent="tpBl7wtEwe1w_ltXdNX6-40" vertex="1">
          <mxGeometry x="24" y="139" width="90" height="10" as="geometry" />
        </mxCell>
        <mxCell id="tpBl7wtEwe1w_ltXdNX6-56" value="&lt;font style=&quot;font-size: 7px;&quot;&gt;60 %&lt;/font&gt;" style="text;html=1;strokeColor=none;fillColor=none;align=center;verticalAlign=middle;whiteSpace=wrap;rounded=0;fontSize=6;container=0;" parent="tpBl7wtEwe1w_ltXdNX6-40" vertex="1">
          <mxGeometry x="103" y="151" width="30" height="10" as="geometry" />
        </mxCell>
        <mxCell id="tpBl7wtEwe1w_ltXdNX6-57" value="" style="rounded=0;whiteSpace=wrap;html=1;fontSize=10;container=0;" parent="tpBl7wtEwe1w_ltXdNX6-40" vertex="1">
          <mxGeometry x="210" y="139" width="150" height="10" as="geometry" />
        </mxCell>
        <mxCell id="tpBl7wtEwe1w_ltXdNX6-58" value="&lt;font style=&quot;font-size: 10px;&quot;&gt;Detection method Y&lt;br&gt;&lt;/font&gt;" style="text;html=1;strokeColor=none;fillColor=none;align=left;verticalAlign=middle;whiteSpace=wrap;rounded=0;fontSize=20;container=0;" parent="tpBl7wtEwe1w_ltXdNX6-40" vertex="1">
          <mxGeometry x="208" y="115" width="140" height="20" as="geometry" />
        </mxCell>
        <mxCell id="tpBl7wtEwe1w_ltXdNX6-59" value="&lt;font style=&quot;font-size: 7px;&quot;&gt;0 %&lt;/font&gt;" style="text;html=1;strokeColor=none;fillColor=none;align=left;verticalAlign=middle;whiteSpace=wrap;rounded=0;fontSize=10;container=0;" parent="tpBl7wtEwe1w_ltXdNX6-40" vertex="1">
          <mxGeometry x="210" y="150" width="30" height="10" as="geometry" />
        </mxCell>
        <mxCell id="tpBl7wtEwe1w_ltXdNX6-60" value="&lt;font style=&quot;font-size: 7px;&quot;&gt;100 %&lt;/font&gt;" style="text;html=1;strokeColor=none;fillColor=none;align=right;verticalAlign=middle;whiteSpace=wrap;rounded=0;fontSize=10;container=0;" parent="tpBl7wtEwe1w_ltXdNX6-40" vertex="1">
          <mxGeometry x="330" y="150" width="30" height="10" as="geometry" />
        </mxCell>
        <mxCell id="tpBl7wtEwe1w_ltXdNX6-61" value="" style="shape=image;verticalLabelPosition=bottom;labelBackgroundColor=default;verticalAlign=top;aspect=fixed;imageAspect=0;image=data:image/svg+xml,PHN2ZyB3aWR0aD0iNDgiIGhlaWdodD0iNDgiIHhtbG5zPSJodHRwOi8vd3d3LnczLm9yZy8yMDAwL3N2ZyIgdmlld0JveD0iMCAwIDQ4IDQ4Ij48cGF0aCBkPSJNMjQuMiAzNS42NXEuOCAwIDEuMzUtLjU1dC41NS0xLjM1cTAtLjgtLjU1LTEuMzV0LTEuMzUtLjU1cS0uOCAwLTEuMzUuNTV0LS41NSAxLjM1cTAgLjguNTUgMS4zNXQxLjM1LjU1Wm0tMS43NS03LjNoMi45NXEwLTEuMy4zMjUtMi4zNzVUMjcuNzUgMjMuNXExLjU1LTEuMyAyLjItMi41NS42NS0xLjI1LjY1LTIuNzUgMC0yLjY1LTEuNzI1LTQuMjV0LTQuNTc1LTEuNnEtMi40NSAwLTQuMzI1IDEuMjI1VDE3LjI1IDE2Ljk1bDIuNjUgMXEuNTUtMS40IDEuNjUtMi4xNzUgMS4xLS43NzUgMi42LS43NzUgMS43IDAgMi43NS45MjV0MS4wNSAyLjM3NXEwIDEuMS0uNjUgMi4wNzUtLjY1Ljk3NS0xLjkgMi4wMjUtMS41IDEuMy0yLjIyNSAyLjU3NS0uNzI1IDEuMjc1LS43MjUgMy4zNzVaTTI0IDQ0cS00LjEgMC03Ljc1LTEuNTc1LTMuNjUtMS41NzUtNi4zNzUtNC4zLTIuNzI1LTIuNzI1LTQuMy02LjM3NVE0IDI4LjEgNCAyNHEwLTQuMTUgMS41NzUtNy44IDEuNTc1LTMuNjUgNC4zLTYuMzUgMi43MjUtMi43IDYuMzc1LTQuMjc1UTE5LjkgNCAyNCA0cTQuMTUgMCA3LjggMS41NzUgMy42NSAxLjU3NSA2LjM1IDQuMjc1IDIuNyAyLjcgNC4yNzUgNi4zNVE0NCAxOS44NSA0NCAyNHEwIDQuMS0xLjU3NSA3Ljc1LTEuNTc1IDMuNjUtNC4yNzUgNi4zNzV0LTYuMzUgNC4zUTI4LjE1IDQ0IDI0IDQ0Wm0wLTNxNy4xIDAgMTIuMDUtNC45NzVRNDEgMzEuMDUgNDEgMjRxMC03LjEtNC45NS0xMi4wNVEzMS4xIDcgMjQgN3EtNy4wNSAwLTEyLjAyNSA0Ljk1UTcgMTYuOSA3IDI0cTAgNy4wNSA0Ljk3NSAxMi4wMjVRMTYuOTUgNDEgMjQgNDFabTAtMTdaIi8+PC9zdmc+;container=0;" parent="tpBl7wtEwe1w_ltXdNX6-40" vertex="1">
          <mxGeometry x="345" y="122" width="15" height="15" as="geometry" />
        </mxCell>
        <mxCell id="tpBl7wtEwe1w_ltXdNX6-62" value="" style="rounded=0;whiteSpace=wrap;html=1;fontSize=6;fillColor=#BABABA;fontColor=#333333;strokeColor=#000000;container=0;" parent="tpBl7wtEwe1w_ltXdNX6-40" vertex="1">
          <mxGeometry x="210" y="139" width="115" height="10" as="geometry" />
        </mxCell>
        <mxCell id="tpBl7wtEwe1w_ltXdNX6-63" value="&lt;font style=&quot;font-size: 7px;&quot;&gt;76 %&lt;/font&gt;" style="text;html=1;strokeColor=none;fillColor=none;align=center;verticalAlign=middle;whiteSpace=wrap;rounded=0;fontSize=6;container=0;" parent="tpBl7wtEwe1w_ltXdNX6-40" vertex="1">
          <mxGeometry x="311" y="151" width="30" height="10" as="geometry" />
        </mxCell>
        <mxCell id="tpBl7wtEwe1w_ltXdNX6-64" value="" style="rounded=0;whiteSpace=wrap;html=1;fontSize=10;container=0;" parent="tpBl7wtEwe1w_ltXdNX6-40" vertex="1">
          <mxGeometry x="24" y="200" width="150" height="10" as="geometry" />
        </mxCell>
        <mxCell id="tpBl7wtEwe1w_ltXdNX6-65" value="&lt;font style=&quot;font-size: 10px;&quot;&gt;Detection method Z&lt;br&gt;&lt;/font&gt;" style="text;html=1;strokeColor=none;fillColor=none;align=left;verticalAlign=middle;whiteSpace=wrap;rounded=0;fontSize=20;container=0;" parent="tpBl7wtEwe1w_ltXdNX6-40" vertex="1">
          <mxGeometry x="22" y="176" width="140" height="20" as="geometry" />
        </mxCell>
        <mxCell id="tpBl7wtEwe1w_ltXdNX6-66" value="&lt;font style=&quot;font-size: 7px;&quot;&gt;0 %&lt;/font&gt;" style="text;html=1;strokeColor=none;fillColor=none;align=left;verticalAlign=middle;whiteSpace=wrap;rounded=0;fontSize=10;container=0;" parent="tpBl7wtEwe1w_ltXdNX6-40" vertex="1">
          <mxGeometry x="24" y="211" width="30" height="10" as="geometry" />
        </mxCell>
        <mxCell id="tpBl7wtEwe1w_ltXdNX6-67" value="" style="shape=image;verticalLabelPosition=bottom;labelBackgroundColor=default;verticalAlign=top;aspect=fixed;imageAspect=0;image=data:image/svg+xml,PHN2ZyB3aWR0aD0iNDgiIGhlaWdodD0iNDgiIHhtbG5zPSJodHRwOi8vd3d3LnczLm9yZy8yMDAwL3N2ZyIgdmlld0JveD0iMCAwIDQ4IDQ4Ij48cGF0aCBkPSJNMjQuMiAzNS42NXEuOCAwIDEuMzUtLjU1dC41NS0xLjM1cTAtLjgtLjU1LTEuMzV0LTEuMzUtLjU1cS0uOCAwLTEuMzUuNTV0LS41NSAxLjM1cTAgLjguNTUgMS4zNXQxLjM1LjU1Wm0tMS43NS03LjNoMi45NXEwLTEuMy4zMjUtMi4zNzVUMjcuNzUgMjMuNXExLjU1LTEuMyAyLjItMi41NS42NS0xLjI1LjY1LTIuNzUgMC0yLjY1LTEuNzI1LTQuMjV0LTQuNTc1LTEuNnEtMi40NSAwLTQuMzI1IDEuMjI1VDE3LjI1IDE2Ljk1bDIuNjUgMXEuNTUtMS40IDEuNjUtMi4xNzUgMS4xLS43NzUgMi42LS43NzUgMS43IDAgMi43NS45MjV0MS4wNSAyLjM3NXEwIDEuMS0uNjUgMi4wNzUtLjY1Ljk3NS0xLjkgMi4wMjUtMS41IDEuMy0yLjIyNSAyLjU3NS0uNzI1IDEuMjc1LS43MjUgMy4zNzVaTTI0IDQ0cS00LjEgMC03Ljc1LTEuNTc1LTMuNjUtMS41NzUtNi4zNzUtNC4zLTIuNzI1LTIuNzI1LTQuMy02LjM3NVE0IDI4LjEgNCAyNHEwLTQuMTUgMS41NzUtNy44IDEuNTc1LTMuNjUgNC4zLTYuMzUgMi43MjUtMi43IDYuMzc1LTQuMjc1UTE5LjkgNCAyNCA0cTQuMTUgMCA3LjggMS41NzUgMy42NSAxLjU3NSA2LjM1IDQuMjc1IDIuNyAyLjcgNC4yNzUgNi4zNVE0NCAxOS44NSA0NCAyNHEwIDQuMS0xLjU3NSA3Ljc1LTEuNTc1IDMuNjUtNC4yNzUgNi4zNzV0LTYuMzUgNC4zUTI4LjE1IDQ0IDI0IDQ0Wm0wLTNxNy4xIDAgMTIuMDUtNC45NzVRNDEgMzEuMDUgNDEgMjRxMC03LjEtNC45NS0xMi4wNVEzMS4xIDcgMjQgN3EtNy4wNSAwLTEyLjAyNSA0Ljk1UTcgMTYuOSA3IDI0cTAgNy4wNSA0Ljk3NSAxMi4wMjVRMTYuOTUgNDEgMjQgNDFabTAtMTdaIi8+PC9zdmc+;container=0;" parent="tpBl7wtEwe1w_ltXdNX6-40" vertex="1">
          <mxGeometry x="159" y="183" width="15" height="15" as="geometry" />
        </mxCell>
        <mxCell id="tpBl7wtEwe1w_ltXdNX6-68" value="" style="rounded=0;whiteSpace=wrap;html=1;fontSize=6;fillColor=#BABABA;fontColor=#333333;strokeColor=#000000;container=0;" parent="tpBl7wtEwe1w_ltXdNX6-40" vertex="1">
          <mxGeometry x="24" y="200" width="147" height="10" as="geometry" />
        </mxCell>
        <mxCell id="tpBl7wtEwe1w_ltXdNX6-69" value="&lt;div align=&quot;right&quot;&gt;&lt;font style=&quot;font-size: 7px;&quot;&gt;98 %&lt;/font&gt;&lt;/div&gt;" style="text;html=1;strokeColor=none;fillColor=none;align=right;verticalAlign=middle;whiteSpace=wrap;rounded=0;fontSize=6;container=0;" parent="tpBl7wtEwe1w_ltXdNX6-40" vertex="1">
          <mxGeometry x="144" y="212" width="30" height="10" as="geometry" />
        </mxCell>
        <mxCell id="N7sEOZ7xVOHTOeoTomxm-198" value="&lt;div style=&quot;font-size: 6px; line-height: 130%;&quot;&gt;&lt;font style=&quot;font-size: 6px;&quot;&gt;&lt;b&gt;Method description&lt;/b&gt;&lt;br&gt;Lorem ipsum dolor sit amet, consectetuer adipiscing elit. Praesent vitae arcu tempor neque lacinia pretium. Proin in tellus sit amet nibh dignissim sagittis. Pellentesque habitant morbi tristique senectus et netus et malesuada fames ac turpis egestas. &lt;/font&gt;Nullam sapien sem, ornare ac, nonummy non, lobortis a enim.&lt;/div&gt;" style="shape=callout;whiteSpace=wrap;html=1;perimeter=calloutPerimeter;fontSize=7;base=10;position2=0.5;size=14;position=0.5;align=left;container=0;" parent="1" vertex="1">
          <mxGeometry x="515" y="310" width="160" height="92" as="geometry" />
        </mxCell>
        <mxCell id="tpBl7wtEwe1w_ltXdNX6-71" value="" style="group" parent="1" vertex="1" connectable="0">
          <mxGeometry x="841" y="280" width="400" height="250" as="geometry" />
        </mxCell>
        <mxCell id="tpBl7wtEwe1w_ltXdNX6-72" value="" style="rounded=0;whiteSpace=wrap;html=1;fontSize=10;movable=1;resizable=1;rotatable=1;deletable=1;editable=1;connectable=1;container=0;" parent="tpBl7wtEwe1w_ltXdNX6-71" vertex="1">
          <mxGeometry width="400" height="250" as="geometry" />
        </mxCell>
        <mxCell id="tpBl7wtEwe1w_ltXdNX6-73" value="" style="endArrow=none;html=1;rounded=0;strokeWidth=1;fontSize=10;movable=1;resizable=1;rotatable=1;deletable=1;editable=1;connectable=1;" parent="tpBl7wtEwe1w_ltXdNX6-71" edge="1">
          <mxGeometry width="50" height="50" relative="1" as="geometry">
            <mxPoint y="19" as="sourcePoint" />
            <mxPoint x="400" y="19" as="targetPoint" />
          </mxGeometry>
        </mxCell>
        <mxCell id="tpBl7wtEwe1w_ltXdNX6-74" value="Deepfake detector" style="text;html=1;strokeColor=none;fillColor=none;align=center;verticalAlign=middle;whiteSpace=wrap;rounded=0;fontSize=10;movable=1;resizable=1;rotatable=1;deletable=1;editable=1;connectable=1;container=0;" parent="tpBl7wtEwe1w_ltXdNX6-71" vertex="1">
          <mxGeometry width="100" height="20" as="geometry" />
        </mxCell>
        <mxCell id="tpBl7wtEwe1w_ltXdNX6-75" value="&lt;div style=&quot;font-size: 10px;&quot; align=&quot;center&quot;&gt;&lt;font style=&quot;font-size: 10px;&quot;&gt;×&lt;/font&gt;&lt;/div&gt;" style="ellipse;whiteSpace=wrap;html=1;aspect=fixed;fontSize=10;align=center;verticalAlign=middle;spacing=0;movable=1;resizable=1;rotatable=1;deletable=1;editable=1;connectable=1;container=0;" parent="tpBl7wtEwe1w_ltXdNX6-71" vertex="1">
          <mxGeometry x="384" y="3" width="13" height="13" as="geometry" />
        </mxCell>
        <mxCell id="tpBl7wtEwe1w_ltXdNX6-76" value="" style="shape=image;verticalLabelPosition=bottom;labelBackgroundColor=default;verticalAlign=top;aspect=fixed;imageAspect=0;image=data:image/svg+xml,PHN2ZyB3aWR0aD0iNDgiIGhlaWdodD0iNDgiIHhtbG5zPSJodHRwOi8vd3d3LnczLm9yZy8yMDAwL3N2ZyIgdmlld0JveD0iMCAwIDQ4IDQ4Ij48cGF0aCBkPSJNMjQuMiAzNS42NXEuOCAwIDEuMzUtLjU1dC41NS0xLjM1cTAtLjgtLjU1LTEuMzV0LTEuMzUtLjU1cS0uOCAwLTEuMzUuNTV0LS41NSAxLjM1cTAgLjguNTUgMS4zNXQxLjM1LjU1Wm0tMS43NS03LjNoMi45NXEwLTEuMy4zMjUtMi4zNzVUMjcuNzUgMjMuNXExLjU1LTEuMyAyLjItMi41NS42NS0xLjI1LjY1LTIuNzUgMC0yLjY1LTEuNzI1LTQuMjV0LTQuNTc1LTEuNnEtMi40NSAwLTQuMzI1IDEuMjI1VDE3LjI1IDE2Ljk1bDIuNjUgMXEuNTUtMS40IDEuNjUtMi4xNzUgMS4xLS43NzUgMi42LS43NzUgMS43IDAgMi43NS45MjV0MS4wNSAyLjM3NXEwIDEuMS0uNjUgMi4wNzUtLjY1Ljk3NS0xLjkgMi4wMjUtMS41IDEuMy0yLjIyNSAyLjU3NS0uNzI1IDEuMjc1LS43MjUgMy4zNzVaTTI0IDQ0cS00LjEgMC03Ljc1LTEuNTc1LTMuNjUtMS41NzUtNi4zNzUtNC4zLTIuNzI1LTIuNzI1LTQuMy02LjM3NVE0IDI4LjEgNCAyNHEwLTQuMTUgMS41NzUtNy44IDEuNTc1LTMuNjUgNC4zLTYuMzUgMi43MjUtMi43IDYuMzc1LTQuMjc1UTE5LjkgNCAyNCA0cTQuMTUgMCA3LjggMS41NzUgMy42NSAxLjU3NSA2LjM1IDQuMjc1IDIuNyAyLjcgNC4yNzUgNi4zNVE0NCAxOS44NSA0NCAyNHEwIDQuMS0xLjU3NSA3Ljc1LTEuNTc1IDMuNjUtNC4yNzUgNi4zNzV0LTYuMzUgNC4zUTI4LjE1IDQ0IDI0IDQ0Wm0wLTNxNy4xIDAgMTIuMDUtNC45NzVRNDEgMzEuMDUgNDEgMjRxMC03LjEtNC45NS0xMi4wNVEzMS4xIDcgMjQgN3EtNy4wNSAwLTEyLjAyNSA0Ljk1UTcgMTYuOSA3IDI0cTAgNy4wNSA0Ljk3NSAxMi4wMjVRMTYuOTUgNDEgMjQgNDFabTAtMTdaIi8+PC9zdmc+;container=0;" parent="tpBl7wtEwe1w_ltXdNX6-71" vertex="1">
          <mxGeometry x="96" y="37.5" width="15" height="15" as="geometry" />
        </mxCell>
        <mxCell id="tpBl7wtEwe1w_ltXdNX6-77" value="" style="shape=image;verticalLabelPosition=bottom;labelBackgroundColor=default;verticalAlign=top;aspect=fixed;imageAspect=0;image=data:image/svg+xml,PHN2ZyB3aWR0aD0iNDgiIGhlaWdodD0iNDgiIHhtbG5zPSJodHRwOi8vd3d3LnczLm9yZy8yMDAwL3N2ZyIgdmlld0JveD0iMCAwIDQ4IDQ4Ij48cGF0aCBkPSJNMzEuMyAyMS4zNXExLjE1IDAgMS45MjUtLjguNzc1LS44Ljc3NS0xLjkgMC0xLjE1LS43NzUtMS45MjUtLjc3NS0uNzc1LTEuOTI1LS43NzUtMS4xIDAtMS45Ljc3NS0uOC43NzUtLjggMS45MjUgMCAxLjEuOCAxLjkuOC44IDEuOS44Wm0tMTQuNiAwcTEuMTUgMCAxLjkyNS0uOC43NzUtLjguNzc1LTEuOSAwLTEuMTUtLjc3NS0xLjkyNS0uNzc1LS43NzUtMS45MjUtLjc3NS0xLjEgMC0xLjkuNzc1LS44Ljc3NS0uOCAxLjkyNSAwIDEuMS44IDEuOS44LjggMS45LjhabTcuMyAxMy42cTMuMyAwIDYuMDc1LTEuNzc1UTMyLjg1IDMxLjQgMzQuMSAyOC4zNUgxMy45cTEuMyAzLjA1IDQuMDUgNC44MjVRMjAuNyAzNC45NSAyNCAzNC45NVpNMjQgNDRxLTQuMTUgMC03LjgtMS41NzUtMy42NS0xLjU3NS02LjM1LTQuMjc1LTIuNy0yLjctNC4yNzUtNi4zNVE0IDI4LjE1IDQgMjR0MS41NzUtNy44UTcuMTUgMTIuNTUgOS44NSA5Ljg1cTIuNy0yLjcgNi4zNS00LjI3NVExOS44NSA0IDI0IDR0Ny44IDEuNTc1cTMuNjUgMS41NzUgNi4zNSA0LjI3NSAyLjcgMi43IDQuMjc1IDYuMzVRNDQgMTkuODUgNDQgMjR0LTEuNTc1IDcuOHEtMS41NzUgMy42NS00LjI3NSA2LjM1LTIuNyAyLjctNi4zNSA0LjI3NVEyOC4xNSA0NCAyNCA0NFptMC0yMFptMCAxN3E3LjEgMCAxMi4wNS00Ljk1UTQxIDMxLjEgNDEgMjRxMC03LjEtNC45NS0xMi4wNVEzMS4xIDcgMjQgN3EtNy4xIDAtMTIuMDUgNC45NVE3IDE2LjkgNyAyNHEwIDcuMSA0Ljk1IDEyLjA1UTE2LjkgNDEgMjQgNDFaIi8+PC9zdmc+;container=0;" parent="tpBl7wtEwe1w_ltXdNX6-71" vertex="1">
          <mxGeometry x="24" y="60" width="48" height="48" as="geometry" />
        </mxCell>
        <mxCell id="tpBl7wtEwe1w_ltXdNX6-78" value="Overall score:" style="text;html=1;strokeColor=none;fillColor=none;align=center;verticalAlign=middle;whiteSpace=wrap;rounded=0;fontSize=10;container=0;" parent="tpBl7wtEwe1w_ltXdNX6-71" vertex="1">
          <mxGeometry x="10" y="30" width="90" height="30" as="geometry" />
        </mxCell>
        <mxCell id="tpBl7wtEwe1w_ltXdNX6-79" value="&lt;font style=&quot;font-size: 20px;&quot;&gt;76 %&lt;/font&gt;" style="text;html=1;strokeColor=none;fillColor=none;align=center;verticalAlign=middle;whiteSpace=wrap;rounded=0;fontSize=10;container=0;" parent="tpBl7wtEwe1w_ltXdNX6-71" vertex="1">
          <mxGeometry x="90" y="69" width="60" height="30" as="geometry" />
        </mxCell>
        <mxCell id="tpBl7wtEwe1w_ltXdNX6-80" value="" style="shape=image;verticalLabelPosition=bottom;labelBackgroundColor=default;verticalAlign=top;aspect=fixed;imageAspect=0;image=data:image/svg+xml,PHN2ZyB3aWR0aD0iNDgiIGhlaWdodD0iNDgiIHhtbG5zPSJodHRwOi8vd3d3LnczLm9yZy8yMDAwL3N2ZyIgdmlld0JveD0iMCAwIDQ4IDQ4Ij48cGF0aCBkPSJNMTIgMjhoMjR2LTNIMTJabTAtNi41aDI0di0zSDEyWm0wLTYuNWgyNHYtM0gxMlptMzIgMjktOC04SDdxLTEuMTUgMC0yLjA3NS0uOTI1UTQgMzQuMTUgNCAzM1Y3cTAtMS4xNS45MjUtMi4wNzVRNS44NSA0IDcgNGgzNHExLjIgMCAyLjEuOTI1UTQ0IDUuODUgNDQgN1pNNyA3djI2aDMwLjI1TDQxIDM2Ljc1VjdIN1ptMCAwdjI5Ljc1VjdaIi8+PC9zdmc+;container=0;" parent="tpBl7wtEwe1w_ltXdNX6-71" vertex="1">
          <mxGeometry x="382" y="230" width="15" height="15" as="geometry" />
        </mxCell>
        <mxCell id="tpBl7wtEwe1w_ltXdNX6-81" value="" style="rounded=0;whiteSpace=wrap;html=1;fontSize=10;container=0;" parent="tpBl7wtEwe1w_ltXdNX6-71" vertex="1">
          <mxGeometry x="24" y="139" width="150" height="10" as="geometry" />
        </mxCell>
        <mxCell id="tpBl7wtEwe1w_ltXdNX6-82" value="&lt;font style=&quot;font-size: 10px;&quot;&gt;Detection method X&lt;/font&gt;" style="text;html=1;strokeColor=none;fillColor=none;align=left;verticalAlign=middle;whiteSpace=wrap;rounded=0;fontSize=20;container=0;" parent="tpBl7wtEwe1w_ltXdNX6-71" vertex="1">
          <mxGeometry x="22" y="115" width="140" height="20" as="geometry" />
        </mxCell>
        <mxCell id="tpBl7wtEwe1w_ltXdNX6-83" value="&lt;font style=&quot;font-size: 7px;&quot;&gt;0 %&lt;/font&gt;" style="text;html=1;strokeColor=none;fillColor=none;align=left;verticalAlign=middle;whiteSpace=wrap;rounded=0;fontSize=10;container=0;" parent="tpBl7wtEwe1w_ltXdNX6-71" vertex="1">
          <mxGeometry x="24" y="150" width="30" height="10" as="geometry" />
        </mxCell>
        <mxCell id="tpBl7wtEwe1w_ltXdNX6-84" value="&lt;font style=&quot;font-size: 7px;&quot;&gt;100 %&lt;/font&gt;" style="text;html=1;strokeColor=none;fillColor=none;align=right;verticalAlign=middle;whiteSpace=wrap;rounded=0;fontSize=10;container=0;" parent="tpBl7wtEwe1w_ltXdNX6-71" vertex="1">
          <mxGeometry x="144" y="150" width="30" height="10" as="geometry" />
        </mxCell>
        <mxCell id="tpBl7wtEwe1w_ltXdNX6-85" value="" style="shape=image;verticalLabelPosition=bottom;labelBackgroundColor=default;verticalAlign=top;aspect=fixed;imageAspect=0;image=data:image/svg+xml,PHN2ZyB3aWR0aD0iNDgiIGhlaWdodD0iNDgiIHhtbG5zPSJodHRwOi8vd3d3LnczLm9yZy8yMDAwL3N2ZyIgdmlld0JveD0iMCAwIDQ4IDQ4Ij48cGF0aCBkPSJNMjQuMiAzNS42NXEuOCAwIDEuMzUtLjU1dC41NS0xLjM1cTAtLjgtLjU1LTEuMzV0LTEuMzUtLjU1cS0uOCAwLTEuMzUuNTV0LS41NSAxLjM1cTAgLjguNTUgMS4zNXQxLjM1LjU1Wm0tMS43NS03LjNoMi45NXEwLTEuMy4zMjUtMi4zNzVUMjcuNzUgMjMuNXExLjU1LTEuMyAyLjItMi41NS42NS0xLjI1LjY1LTIuNzUgMC0yLjY1LTEuNzI1LTQuMjV0LTQuNTc1LTEuNnEtMi40NSAwLTQuMzI1IDEuMjI1VDE3LjI1IDE2Ljk1bDIuNjUgMXEuNTUtMS40IDEuNjUtMi4xNzUgMS4xLS43NzUgMi42LS43NzUgMS43IDAgMi43NS45MjV0MS4wNSAyLjM3NXEwIDEuMS0uNjUgMi4wNzUtLjY1Ljk3NS0xLjkgMi4wMjUtMS41IDEuMy0yLjIyNSAyLjU3NS0uNzI1IDEuMjc1LS43MjUgMy4zNzVaTTI0IDQ0cS00LjEgMC03Ljc1LTEuNTc1LTMuNjUtMS41NzUtNi4zNzUtNC4zLTIuNzI1LTIuNzI1LTQuMy02LjM3NVE0IDI4LjEgNCAyNHEwLTQuMTUgMS41NzUtNy44IDEuNTc1LTMuNjUgNC4zLTYuMzUgMi43MjUtMi43IDYuMzc1LTQuMjc1UTE5LjkgNCAyNCA0cTQuMTUgMCA3LjggMS41NzUgMy42NSAxLjU3NSA2LjM1IDQuMjc1IDIuNyAyLjcgNC4yNzUgNi4zNVE0NCAxOS44NSA0NCAyNHEwIDQuMS0xLjU3NSA3Ljc1LTEuNTc1IDMuNjUtNC4yNzUgNi4zNzV0LTYuMzUgNC4zUTI4LjE1IDQ0IDI0IDQ0Wm0wLTNxNy4xIDAgMTIuMDUtNC45NzVRNDEgMzEuMDUgNDEgMjRxMC03LjEtNC45NS0xMi4wNVEzMS4xIDcgMjQgN3EtNy4wNSAwLTEyLjAyNSA0Ljk1UTcgMTYuOSA3IDI0cTAgNy4wNSA0Ljk3NSAxMi4wMjVRMTYuOTUgNDEgMjQgNDFabTAtMTdaIi8+PC9zdmc+;container=0;" parent="tpBl7wtEwe1w_ltXdNX6-71" vertex="1">
          <mxGeometry x="159" y="122" width="15" height="15" as="geometry" />
        </mxCell>
        <mxCell id="tpBl7wtEwe1w_ltXdNX6-86" value="" style="rounded=0;whiteSpace=wrap;html=1;fontSize=6;fillColor=#BABABA;fontColor=#333333;strokeColor=#000000;container=0;" parent="tpBl7wtEwe1w_ltXdNX6-71" vertex="1">
          <mxGeometry x="24" y="139" width="90" height="10" as="geometry" />
        </mxCell>
        <mxCell id="tpBl7wtEwe1w_ltXdNX6-87" value="&lt;font style=&quot;font-size: 7px;&quot;&gt;60 %&lt;/font&gt;" style="text;html=1;strokeColor=none;fillColor=none;align=center;verticalAlign=middle;whiteSpace=wrap;rounded=0;fontSize=6;container=0;" parent="tpBl7wtEwe1w_ltXdNX6-71" vertex="1">
          <mxGeometry x="103" y="151" width="30" height="10" as="geometry" />
        </mxCell>
        <mxCell id="tpBl7wtEwe1w_ltXdNX6-88" value="" style="rounded=0;whiteSpace=wrap;html=1;fontSize=10;container=0;" parent="tpBl7wtEwe1w_ltXdNX6-71" vertex="1">
          <mxGeometry x="210" y="139" width="150" height="10" as="geometry" />
        </mxCell>
        <mxCell id="tpBl7wtEwe1w_ltXdNX6-89" value="&lt;font style=&quot;font-size: 10px;&quot;&gt;Detection method Y&lt;br&gt;&lt;/font&gt;" style="text;html=1;strokeColor=none;fillColor=none;align=left;verticalAlign=middle;whiteSpace=wrap;rounded=0;fontSize=20;container=0;" parent="tpBl7wtEwe1w_ltXdNX6-71" vertex="1">
          <mxGeometry x="208" y="115" width="140" height="20" as="geometry" />
        </mxCell>
        <mxCell id="tpBl7wtEwe1w_ltXdNX6-90" value="&lt;font style=&quot;font-size: 7px;&quot;&gt;0 %&lt;/font&gt;" style="text;html=1;strokeColor=none;fillColor=none;align=left;verticalAlign=middle;whiteSpace=wrap;rounded=0;fontSize=10;container=0;" parent="tpBl7wtEwe1w_ltXdNX6-71" vertex="1">
          <mxGeometry x="210" y="150" width="30" height="10" as="geometry" />
        </mxCell>
        <mxCell id="tpBl7wtEwe1w_ltXdNX6-91" value="&lt;font style=&quot;font-size: 7px;&quot;&gt;100 %&lt;/font&gt;" style="text;html=1;strokeColor=none;fillColor=none;align=right;verticalAlign=middle;whiteSpace=wrap;rounded=0;fontSize=10;container=0;" parent="tpBl7wtEwe1w_ltXdNX6-71" vertex="1">
          <mxGeometry x="330" y="150" width="30" height="10" as="geometry" />
        </mxCell>
        <mxCell id="tpBl7wtEwe1w_ltXdNX6-92" value="" style="shape=image;verticalLabelPosition=bottom;labelBackgroundColor=default;verticalAlign=top;aspect=fixed;imageAspect=0;image=data:image/svg+xml,PHN2ZyB3aWR0aD0iNDgiIGhlaWdodD0iNDgiIHhtbG5zPSJodHRwOi8vd3d3LnczLm9yZy8yMDAwL3N2ZyIgdmlld0JveD0iMCAwIDQ4IDQ4Ij48cGF0aCBkPSJNMjQuMiAzNS42NXEuOCAwIDEuMzUtLjU1dC41NS0xLjM1cTAtLjgtLjU1LTEuMzV0LTEuMzUtLjU1cS0uOCAwLTEuMzUuNTV0LS41NSAxLjM1cTAgLjguNTUgMS4zNXQxLjM1LjU1Wm0tMS43NS03LjNoMi45NXEwLTEuMy4zMjUtMi4zNzVUMjcuNzUgMjMuNXExLjU1LTEuMyAyLjItMi41NS42NS0xLjI1LjY1LTIuNzUgMC0yLjY1LTEuNzI1LTQuMjV0LTQuNTc1LTEuNnEtMi40NSAwLTQuMzI1IDEuMjI1VDE3LjI1IDE2Ljk1bDIuNjUgMXEuNTUtMS40IDEuNjUtMi4xNzUgMS4xLS43NzUgMi42LS43NzUgMS43IDAgMi43NS45MjV0MS4wNSAyLjM3NXEwIDEuMS0uNjUgMi4wNzUtLjY1Ljk3NS0xLjkgMi4wMjUtMS41IDEuMy0yLjIyNSAyLjU3NS0uNzI1IDEuMjc1LS43MjUgMy4zNzVaTTI0IDQ0cS00LjEgMC03Ljc1LTEuNTc1LTMuNjUtMS41NzUtNi4zNzUtNC4zLTIuNzI1LTIuNzI1LTQuMy02LjM3NVE0IDI4LjEgNCAyNHEwLTQuMTUgMS41NzUtNy44IDEuNTc1LTMuNjUgNC4zLTYuMzUgMi43MjUtMi43IDYuMzc1LTQuMjc1UTE5LjkgNCAyNCA0cTQuMTUgMCA3LjggMS41NzUgMy42NSAxLjU3NSA2LjM1IDQuMjc1IDIuNyAyLjcgNC4yNzUgNi4zNVE0NCAxOS44NSA0NCAyNHEwIDQuMS0xLjU3NSA3Ljc1LTEuNTc1IDMuNjUtNC4yNzUgNi4zNzV0LTYuMzUgNC4zUTI4LjE1IDQ0IDI0IDQ0Wm0wLTNxNy4xIDAgMTIuMDUtNC45NzVRNDEgMzEuMDUgNDEgMjRxMC03LjEtNC45NS0xMi4wNVEzMS4xIDcgMjQgN3EtNy4wNSAwLTEyLjAyNSA0Ljk1UTcgMTYuOSA3IDI0cTAgNy4wNSA0Ljk3NSAxMi4wMjVRMTYuOTUgNDEgMjQgNDFabTAtMTdaIi8+PC9zdmc+;container=0;" parent="tpBl7wtEwe1w_ltXdNX6-71" vertex="1">
          <mxGeometry x="345" y="122" width="15" height="15" as="geometry" />
        </mxCell>
        <mxCell id="tpBl7wtEwe1w_ltXdNX6-93" value="" style="rounded=0;whiteSpace=wrap;html=1;fontSize=6;fillColor=#BABABA;fontColor=#333333;strokeColor=#000000;container=0;" parent="tpBl7wtEwe1w_ltXdNX6-71" vertex="1">
          <mxGeometry x="210" y="139" width="115" height="10" as="geometry" />
        </mxCell>
        <mxCell id="tpBl7wtEwe1w_ltXdNX6-94" value="&lt;font style=&quot;font-size: 7px;&quot;&gt;76 %&lt;/font&gt;" style="text;html=1;strokeColor=none;fillColor=none;align=center;verticalAlign=middle;whiteSpace=wrap;rounded=0;fontSize=6;container=0;" parent="tpBl7wtEwe1w_ltXdNX6-71" vertex="1">
          <mxGeometry x="311" y="151" width="30" height="10" as="geometry" />
        </mxCell>
        <mxCell id="tpBl7wtEwe1w_ltXdNX6-95" value="" style="rounded=0;whiteSpace=wrap;html=1;fontSize=10;container=0;" parent="tpBl7wtEwe1w_ltXdNX6-71" vertex="1">
          <mxGeometry x="24" y="200" width="150" height="10" as="geometry" />
        </mxCell>
        <mxCell id="tpBl7wtEwe1w_ltXdNX6-96" value="&lt;font style=&quot;font-size: 10px;&quot;&gt;Detection method Z&lt;br&gt;&lt;/font&gt;" style="text;html=1;strokeColor=none;fillColor=none;align=left;verticalAlign=middle;whiteSpace=wrap;rounded=0;fontSize=20;container=0;" parent="tpBl7wtEwe1w_ltXdNX6-71" vertex="1">
          <mxGeometry x="22" y="176" width="140" height="20" as="geometry" />
        </mxCell>
        <mxCell id="tpBl7wtEwe1w_ltXdNX6-97" value="&lt;font style=&quot;font-size: 7px;&quot;&gt;0 %&lt;/font&gt;" style="text;html=1;strokeColor=none;fillColor=none;align=left;verticalAlign=middle;whiteSpace=wrap;rounded=0;fontSize=10;container=0;" parent="tpBl7wtEwe1w_ltXdNX6-71" vertex="1">
          <mxGeometry x="24" y="211" width="30" height="10" as="geometry" />
        </mxCell>
        <mxCell id="tpBl7wtEwe1w_ltXdNX6-98" value="" style="shape=image;verticalLabelPosition=bottom;labelBackgroundColor=default;verticalAlign=top;aspect=fixed;imageAspect=0;image=data:image/svg+xml,PHN2ZyB3aWR0aD0iNDgiIGhlaWdodD0iNDgiIHhtbG5zPSJodHRwOi8vd3d3LnczLm9yZy8yMDAwL3N2ZyIgdmlld0JveD0iMCAwIDQ4IDQ4Ij48cGF0aCBkPSJNMjQuMiAzNS42NXEuOCAwIDEuMzUtLjU1dC41NS0xLjM1cTAtLjgtLjU1LTEuMzV0LTEuMzUtLjU1cS0uOCAwLTEuMzUuNTV0LS41NSAxLjM1cTAgLjguNTUgMS4zNXQxLjM1LjU1Wm0tMS43NS03LjNoMi45NXEwLTEuMy4zMjUtMi4zNzVUMjcuNzUgMjMuNXExLjU1LTEuMyAyLjItMi41NS42NS0xLjI1LjY1LTIuNzUgMC0yLjY1LTEuNzI1LTQuMjV0LTQuNTc1LTEuNnEtMi40NSAwLTQuMzI1IDEuMjI1VDE3LjI1IDE2Ljk1bDIuNjUgMXEuNTUtMS40IDEuNjUtMi4xNzUgMS4xLS43NzUgMi42LS43NzUgMS43IDAgMi43NS45MjV0MS4wNSAyLjM3NXEwIDEuMS0uNjUgMi4wNzUtLjY1Ljk3NS0xLjkgMi4wMjUtMS41IDEuMy0yLjIyNSAyLjU3NS0uNzI1IDEuMjc1LS43MjUgMy4zNzVaTTI0IDQ0cS00LjEgMC03Ljc1LTEuNTc1LTMuNjUtMS41NzUtNi4zNzUtNC4zLTIuNzI1LTIuNzI1LTQuMy02LjM3NVE0IDI4LjEgNCAyNHEwLTQuMTUgMS41NzUtNy44IDEuNTc1LTMuNjUgNC4zLTYuMzUgMi43MjUtMi43IDYuMzc1LTQuMjc1UTE5LjkgNCAyNCA0cTQuMTUgMCA3LjggMS41NzUgMy42NSAxLjU3NSA2LjM1IDQuMjc1IDIuNyAyLjcgNC4yNzUgNi4zNVE0NCAxOS44NSA0NCAyNHEwIDQuMS0xLjU3NSA3Ljc1LTEuNTc1IDMuNjUtNC4yNzUgNi4zNzV0LTYuMzUgNC4zUTI4LjE1IDQ0IDI0IDQ0Wm0wLTNxNy4xIDAgMTIuMDUtNC45NzVRNDEgMzEuMDUgNDEgMjRxMC03LjEtNC45NS0xMi4wNVEzMS4xIDcgMjQgN3EtNy4wNSAwLTEyLjAyNSA0Ljk1UTcgMTYuOSA3IDI0cTAgNy4wNSA0Ljk3NSAxMi4wMjVRMTYuOTUgNDEgMjQgNDFabTAtMTdaIi8+PC9zdmc+;container=0;" parent="tpBl7wtEwe1w_ltXdNX6-71" vertex="1">
          <mxGeometry x="159" y="183" width="15" height="15" as="geometry" />
        </mxCell>
        <mxCell id="tpBl7wtEwe1w_ltXdNX6-99" value="" style="rounded=0;whiteSpace=wrap;html=1;fontSize=6;fillColor=#BABABA;fontColor=#333333;strokeColor=#000000;container=0;" parent="tpBl7wtEwe1w_ltXdNX6-71" vertex="1">
          <mxGeometry x="24" y="200" width="147" height="10" as="geometry" />
        </mxCell>
        <mxCell id="tpBl7wtEwe1w_ltXdNX6-100" value="&lt;div align=&quot;right&quot;&gt;&lt;font style=&quot;font-size: 7px;&quot;&gt;98 %&lt;/font&gt;&lt;/div&gt;" style="text;html=1;strokeColor=none;fillColor=none;align=right;verticalAlign=middle;whiteSpace=wrap;rounded=0;fontSize=6;container=0;" parent="tpBl7wtEwe1w_ltXdNX6-71" vertex="1">
          <mxGeometry x="144" y="212" width="30" height="10" as="geometry" />
        </mxCell>
        <mxCell id="tpBl7wtEwe1w_ltXdNX6-107" value="" style="rounded=0;whiteSpace=wrap;html=1;fontSize=10;" parent="tpBl7wtEwe1w_ltXdNX6-71" vertex="1">
          <mxGeometry x="70" y="50" width="260" height="150" as="geometry" />
        </mxCell>
        <mxCell id="tpBl7wtEwe1w_ltXdNX6-108" value="Enter your feedback:" style="text;html=1;strokeColor=none;fillColor=none;align=center;verticalAlign=middle;whiteSpace=wrap;rounded=0;fontSize=10;" parent="tpBl7wtEwe1w_ltXdNX6-71" vertex="1">
          <mxGeometry x="80" y="63" width="240" height="30" as="geometry" />
        </mxCell>
        <mxCell id="tpBl7wtEwe1w_ltXdNX6-109" value="" style="rounded=0;whiteSpace=wrap;html=1;fontSize=10;" parent="tpBl7wtEwe1w_ltXdNX6-71" vertex="1">
          <mxGeometry x="91" y="95" width="220" height="60" as="geometry" />
        </mxCell>
        <mxCell id="tpBl7wtEwe1w_ltXdNX6-110" value="Submit" style="rounded=0;whiteSpace=wrap;html=1;fontSize=10;" parent="tpBl7wtEwe1w_ltXdNX6-71" vertex="1">
          <mxGeometry x="131" y="166" width="60" height="20" as="geometry" />
        </mxCell>
        <mxCell id="tpBl7wtEwe1w_ltXdNX6-111" value="Storno" style="rounded=0;whiteSpace=wrap;html=1;fontSize=10;" parent="tpBl7wtEwe1w_ltXdNX6-71" vertex="1">
          <mxGeometry x="209" y="166" width="60" height="20" as="geometry" />
        </mxCell>
        <mxCell id="tpBl7wtEwe1w_ltXdNX6-112" value="" style="group" parent="1" vertex="1" connectable="0">
          <mxGeometry x="10" y="280" width="400" height="250" as="geometry" />
        </mxCell>
        <mxCell id="N7sEOZ7xVOHTOeoTomxm-17" value="" style="rounded=0;whiteSpace=wrap;html=1;fontSize=10;" parent="tpBl7wtEwe1w_ltXdNX6-112" vertex="1">
          <mxGeometry width="400" height="250" as="geometry" />
        </mxCell>
        <mxCell id="N7sEOZ7xVOHTOeoTomxm-18" value="" style="rounded=0;whiteSpace=wrap;html=1;fontSize=20;" parent="tpBl7wtEwe1w_ltXdNX6-112" vertex="1">
          <mxGeometry x="269" y="65" width="100" height="120" as="geometry" />
        </mxCell>
        <mxCell id="N7sEOZ7xVOHTOeoTomxm-19" value="" style="rounded=0;whiteSpace=wrap;html=1;fontSize=20;fontStyle=1" parent="tpBl7wtEwe1w_ltXdNX6-112" vertex="1">
          <mxGeometry x="31" y="65" width="100" height="120" as="geometry" />
        </mxCell>
        <mxCell id="N7sEOZ7xVOHTOeoTomxm-20" value="" style="rounded=0;whiteSpace=wrap;html=1;fontSize=20;" parent="tpBl7wtEwe1w_ltXdNX6-112" vertex="1">
          <mxGeometry x="151" y="65" width="100" height="120" as="geometry" />
        </mxCell>
        <mxCell id="N7sEOZ7xVOHTOeoTomxm-21" value="" style="shape=image;verticalLabelPosition=bottom;labelBackgroundColor=default;verticalAlign=top;aspect=fixed;imageAspect=0;image=data:image/svg+xml,PHN2ZyB3aWR0aD0iNDgiIGhlaWdodD0iNDgiIHhtbG5zPSJodHRwOi8vd3d3LnczLm9yZy8yMDAwL3N2ZyIgdmlld0JveD0iMCAwIDQ4IDQ4Ij48cGF0aCBkPSJNMjIuNSAzNEgxNHEtNC4xNSAwLTcuMDc1LTIuOTI1VDQgMjRxMC00LjE1IDIuOTI1LTcuMDc1VDE0IDE0aDguNXYzSDE0cS0yLjkgMC00Ljk1IDIuMDVRNyAyMS4xIDcgMjRxMCAyLjkgMi4wNSA0Ljk1UTExLjEgMzEgMTQgMzFoOC41Wm0tNi4yNS04LjV2LTNoMTUuNXYzWk0yNS41IDM0di0zSDM0cTIuOSAwIDQuOTUtMi4wNVE0MSAyNi45IDQxIDI0cTAtMi45LTIuMDUtNC45NVEzNi45IDE3IDM0IDE3aC04LjV2LTNIMzRxNC4xNSAwIDcuMDc1IDIuOTI1VDQ0IDI0cTAgNC4xNS0yLjkyNSA3LjA3NVQzNCAzNFoiLz48L3N2Zz4=;" parent="tpBl7wtEwe1w_ltXdNX6-112" vertex="1">
          <mxGeometry x="295" y="91" width="48" height="48" as="geometry" />
        </mxCell>
        <mxCell id="N7sEOZ7xVOHTOeoTomxm-22" value="" style="shape=image;verticalLabelPosition=bottom;labelBackgroundColor=default;verticalAlign=top;aspect=fixed;imageAspect=0;image=data:image/svg+xml,PHN2ZyB3aWR0aD0iNDgiIGhlaWdodD0iNDgiIHhtbG5zPSJodHRwOi8vd3d3LnczLm9yZy8yMDAwL3N2ZyIgdmlld0JveD0iMCAwIDQ4IDQ4Ij48cGF0aCBkPSJNMTEgNDRxLTEuMiAwLTIuMS0uOVE4IDQyLjIgOCA0MVY3cTAtMS4yLjktMi4xUTkuOCA0IDExIDRoMTguMDVMNDAgMTQuOTVWNDFxMCAxLjItLjkgMi4xLS45LjktMi4xLjlabTE2LjU1LTI3LjdWN0gxMXYzNGgyNlYxNi4zWk0xMSA3djkuM1Y3djM0VjdaIi8+PC9zdmc+;" parent="tpBl7wtEwe1w_ltXdNX6-112" vertex="1">
          <mxGeometry x="177" y="91" width="48" height="48" as="geometry" />
        </mxCell>
        <mxCell id="N7sEOZ7xVOHTOeoTomxm-23" value="" style="shape=image;verticalLabelPosition=bottom;labelBackgroundColor=default;verticalAlign=top;aspect=fixed;imageAspect=0;image=data:image/svg+xml,PHN2ZyB3aWR0aD0iNDgiIGhlaWdodD0iNDgiIHhtbG5zPSJodHRwOi8vd3d3LnczLm9yZy8yMDAwL3N2ZyIgdmlld0JveD0iMCAwIDQ4IDQ4Ij48cGF0aCBkPSJNMTUgMzAuNjUgMjAuNDUgMjNoMTAuOUwxNSAxMC4xNVpNMjggNDMuOGwtNy40LTE1Ljg1TDEyIDQwVjRsMjggMjJIMjUuMjVsNy4yNSAxNS43Wk0yMC40NSAyM1oiLz48L3N2Zz4=;" parent="tpBl7wtEwe1w_ltXdNX6-112" vertex="1">
          <mxGeometry x="57" y="91" width="48" height="48" as="geometry" />
        </mxCell>
        <mxCell id="N7sEOZ7xVOHTOeoTomxm-24" value="&lt;p style=&quot;line-height: 100%; font-size: 10px;&quot; align=&quot;justify&quot;&gt;&lt;font style=&quot;font-size: 10px;&quot;&gt;Element selection&lt;br&gt;&lt;/font&gt;&lt;/p&gt;" style="text;html=1;strokeColor=none;fillColor=none;align=center;verticalAlign=middle;whiteSpace=wrap;rounded=0;fontSize=20;" parent="tpBl7wtEwe1w_ltXdNX6-112" vertex="1">
          <mxGeometry x="31" y="145" width="100" height="30" as="geometry" />
        </mxCell>
        <mxCell id="N7sEOZ7xVOHTOeoTomxm-25" value="&lt;p style=&quot;line-height: 100%; font-size: 10px;&quot;&gt;&lt;font style=&quot;font-size: 10px;&quot;&gt;File upload&lt;br&gt;&lt;/font&gt;&lt;/p&gt;" style="text;html=1;strokeColor=none;fillColor=none;align=center;verticalAlign=middle;whiteSpace=wrap;rounded=0;fontSize=20;" parent="tpBl7wtEwe1w_ltXdNX6-112" vertex="1">
          <mxGeometry x="151" y="145" width="100" height="30" as="geometry" />
        </mxCell>
        <mxCell id="N7sEOZ7xVOHTOeoTomxm-26" value="&lt;p style=&quot;line-height: 100%; font-size: 10px;&quot;&gt;&lt;font style=&quot;font-size: 10px;&quot;&gt;Link&lt;/font&gt;&lt;/p&gt;" style="text;html=1;strokeColor=none;fillColor=none;align=center;verticalAlign=middle;whiteSpace=wrap;rounded=0;fontSize=20;" parent="tpBl7wtEwe1w_ltXdNX6-112" vertex="1">
          <mxGeometry x="269" y="145" width="100" height="30" as="geometry" />
        </mxCell>
        <mxCell id="N7sEOZ7xVOHTOeoTomxm-27" value="" style="endArrow=none;html=1;rounded=0;strokeWidth=1;fontSize=10;" parent="tpBl7wtEwe1w_ltXdNX6-112" edge="1">
          <mxGeometry width="50" height="50" relative="1" as="geometry">
            <mxPoint y="19" as="sourcePoint" />
            <mxPoint x="400" y="19" as="targetPoint" />
          </mxGeometry>
        </mxCell>
        <mxCell id="N7sEOZ7xVOHTOeoTomxm-28" value="Deepfake detector" style="text;html=1;strokeColor=none;fillColor=none;align=center;verticalAlign=middle;whiteSpace=wrap;rounded=0;fontSize=10;" parent="tpBl7wtEwe1w_ltXdNX6-112" vertex="1">
          <mxGeometry width="100" height="20" as="geometry" />
        </mxCell>
        <mxCell id="N7sEOZ7xVOHTOeoTomxm-29" value="&lt;div style=&quot;font-size: 10px;&quot; align=&quot;center&quot;&gt;&lt;font style=&quot;font-size: 10px;&quot;&gt;×&lt;/font&gt;&lt;/div&gt;" style="ellipse;whiteSpace=wrap;html=1;aspect=fixed;fontSize=10;align=center;verticalAlign=middle;spacing=0;" parent="tpBl7wtEwe1w_ltXdNX6-112" vertex="1">
          <mxGeometry x="384" y="3" width="13" height="13" as="geometry" />
        </mxCell>
        <mxCell id="N7sEOZ7xVOHTOeoTomxm-30" value="" style="rounded=0;whiteSpace=wrap;html=1;fontSize=10;" parent="tpBl7wtEwe1w_ltXdNX6-112" vertex="1">
          <mxGeometry x="70" y="50" width="260" height="150" as="geometry" />
        </mxCell>
        <mxCell id="N7sEOZ7xVOHTOeoTomxm-31" value="Enter link to file you would like to inspect:" style="text;html=1;strokeColor=none;fillColor=none;align=center;verticalAlign=middle;whiteSpace=wrap;rounded=0;fontSize=10;" parent="tpBl7wtEwe1w_ltXdNX6-112" vertex="1">
          <mxGeometry x="80" y="70" width="240" height="30" as="geometry" />
        </mxCell>
        <mxCell id="N7sEOZ7xVOHTOeoTomxm-32" value="" style="rounded=0;whiteSpace=wrap;html=1;fontSize=10;" parent="tpBl7wtEwe1w_ltXdNX6-112" vertex="1">
          <mxGeometry x="91" y="114" width="220" height="20" as="geometry" />
        </mxCell>
        <mxCell id="N7sEOZ7xVOHTOeoTomxm-33" value="Submit" style="rounded=0;whiteSpace=wrap;html=1;fontSize=10;" parent="tpBl7wtEwe1w_ltXdNX6-112" vertex="1">
          <mxGeometry x="131" y="150" width="60" height="20" as="geometry" />
        </mxCell>
        <mxCell id="N7sEOZ7xVOHTOeoTomxm-67" value="Storno" style="rounded=0;whiteSpace=wrap;html=1;fontSize=10;" parent="tpBl7wtEwe1w_ltXdNX6-112" vertex="1">
          <mxGeometry x="209" y="150" width="60" height="20" as="geometry" />
        </mxCell>
        <mxCell id="tpBl7wtEwe1w_ltXdNX6-114" value="" style="shape=image;verticalLabelPosition=bottom;labelBackgroundColor=default;verticalAlign=top;aspect=fixed;imageAspect=0;image=data:image/svg+xml,PHN2ZyB3aWR0aD0iNDgiIGhlaWdodD0iNDgiIHhtbG5zPSJodHRwOi8vd3d3LnczLm9yZy8yMDAwL3N2ZyIgdmlld0JveD0iMCAwIDQ4IDQ4Ij48cGF0aCBkPSJNMTIgMjhoMjR2LTNIMTJabTAtNi41aDI0di0zSDEyWm0wLTYuNWgyNHYtM0gxMlptMzIgMjktOC04SDdxLTEuMTUgMC0yLjA3NS0uOTI1UTQgMzQuMTUgNCAzM1Y3cTAtMS4xNS45MjUtMi4wNzVRNS44NSA0IDcgNGgzNHExLjIgMCAyLjEuOTI1UTQ0IDUuODUgNDQgN1pNNyA3djI2aDMwLjI1TDQxIDM2Ljc1VjdIN1ptMCAwdjI5Ljc1VjdaIi8+PC9zdmc+;container=0;" parent="tpBl7wtEwe1w_ltXdNX6-112" vertex="1">
          <mxGeometry x="382" y="230" width="15" height="15" as="geometry" />
        </mxCell>
      </root>
    </mxGraphModel>
  </diagram>
</mxfile>
